<svg xmlns="http://www.w3.org/2000/svg" id="a" viewBox="0 0 556 480"><defs><style>.c{fill:#73350b}.d{fill:#fff}</style></defs><path d="M278 474.26c-69.83 0-126.8-14.24-169.32-42.33-26.31-17.38-46.62-39.91-60.34-66.97-13.57-26.75-20.45-57.46-20.45-91.27 0-14.65 1.28-29.31 3.81-43.72C11.65 205.48.72 175.03.72 143.15.72 67.38 62.36 5.74 138.13 5.74c28.4 0 56.16 8.89 79.27 25.22 19.76-4.9 40.1-7.37 60.6-7.37s40.87 2.48 60.61 7.37c23.1-16.33 50.87-25.22 79.26-25.22 75.77 0 137.41 61.64 137.41 137.41 0 31.88-10.92 62.33-30.96 86.82 2.52 14.37 3.8 29.04 3.8 43.73 0 33.81-6.88 64.51-20.46 91.27-13.73 27.05-34.03 49.58-60.34 66.97-42.51 28.09-99.48 42.33-169.33 42.33Z" class="d"/><path d="M535.28 143.15c0-64.74-52.67-117.41-117.41-117.41-28.47 0-54.6 10.19-74.95 27.1-20.82-6.09-42.63-9.25-64.92-9.25s-44.1 3.17-64.92 9.25c-20.35-16.91-46.48-27.1-74.95-27.1-64.74 0-117.41 52.67-117.41 117.41 0 31.38 12.37 59.92 32.49 81-3.51 16.1-5.33 32.68-5.33 49.55 0 61.56 24.83 110.51 71.82 141.55 39.19 25.89 92.45 39.02 158.3 39.02s119.12-13.13 158.3-39.02c46.98-31.05 71.82-79.99 71.82-141.55 0-16.87-1.81-33.46-5.33-49.55 20.12-21.08 32.49-49.63 32.49-81" class="c"/><path d="M470.98 214.65c-18.18-59.49-63.12-107.29-120.78-129.4-22.42-8.59-46.76-13.32-72.2-13.32s-49.78 4.72-72.2 13.32c-57.67 22.11-102.6 69.91-120.78 129.4-5.71 18.68-8.79 38.51-8.79 59.06 0 111.44 90.34 152.23 201.77 152.23s201.77-40.79 201.77-152.23c0-20.55-3.08-40.38-8.79-59.06" class="d"/><ellipse cx="360.82" cy="266.59" class="c" rx="52.97" ry="66.3" transform="rotate(-27.54 360.82 266.595)"/><path d="M278 346.54c-11.69 0-21.16-2.18-21.16-11.08s9.47-16.12 21.16-16.12 21.16 7.22 21.16 16.12-9.47 11.08-21.16 11.08" class="c"/><ellipse cx="195.17" cy="268.91" class="c" rx="66.3" ry="52.97" transform="rotate(-62.47 195.178 268.902)"/><path d="M0 0h556v480H0z" style="fill:none"/></svg>