<svg width="14" height="18" viewBox="0 0 14 18" fill="none" xmlns="http://www.w3.org/2000/svg">
<path d="M6.12192 3.78302C6.26067 0.716165 1.64625 0.237076 0 0.846874C0.428976 4.38372 4.0191 4.46159 6.12192 3.78302Z" fill="white"/>
<path d="M13.6042 7.77979C13.6384 7.86668 13.6559 7.91159 13.6618 7.92624C13.6537 7.90598 13.6305 7.84641 13.6042 7.77979Z" fill="white"/>
<path d="M13.5866 7.73411C13.5925 7.74922 13.5983 7.7644 13.6042 7.77951C13.5986 7.76464 13.5935 7.75173 13.5866 7.73411C13.4504 7.38631 13.5182 7.55982 13.5861 7.73339C13.1514 6.62259 12.283 5.70686 11.1473 5.30802C9.91453 4.87552 8.62949 5.12106 7.40933 5.45789C7.38616 4.79131 7.44253 4.12281 7.53724 3.46281C7.59092 3.09036 7.84792 2.31983 7.21039 2.29347C6.68126 2.27151 6.67978 2.9798 6.62827 3.34103C6.52871 4.03396 6.46989 4.73618 6.48893 5.43665C6.1958 5.38785 5.90635 5.27873 5.6144 5.2182C5.17897 5.12838 4.7355 5.07226 4.29054 5.07174C3.43311 5.07174 2.58691 5.29897 1.88131 5.7952C0.511095 6.7593 -0.0224711 8.44146 0.000722123 10.0577C0.0260869 11.8077 0.618707 13.4788 1.61575 14.9062C2.05581 15.5364 2.56175 16.1407 3.1871 16.5954C3.79483 17.0372 4.47359 17.2442 5.21046 17.3496C5.52334 17.3948 5.8419 17.396 6.15378 17.345C6.42616 17.3006 6.68123 17.1856 6.9514 17.1399C7.15547 17.1055 7.44323 17.2661 7.64066 17.31C7.97725 17.3857 8.32358 17.4013 8.6665 17.3623C9.92129 17.2193 10.9154 16.6532 11.7411 15.7043C13.5571 13.6173 14.6393 10.4224 13.5866 7.73411Z" fill="white"/>
</svg>
