<svg width="20" height="16" viewBox="0 0 20 16" fill="none" xmlns="http://www.w3.org/2000/svg">
<path d="M13.111 1H1.44434V11.1111H13.111V1Z" stroke="#979797" stroke-linecap="round" stroke-linejoin="round"/>
<path d="M13.1111 4.88892H16.2222L18.5555 7.22225V11.1111H13.1111V4.88892Z" stroke="#979797" stroke-linecap="round" stroke-linejoin="round"/>
<path d="M4.94444 15C6.01833 15 6.88889 14.1294 6.88889 13.0555C6.88889 11.9816 6.01833 11.1111 4.94444 11.1111C3.87056 11.1111 3 11.9816 3 13.0555C3 14.1294 3.87056 15 4.94444 15Z" stroke="#979797" stroke-linecap="round" stroke-linejoin="round"/>
<path d="M15.0555 15C16.1294 15 17 14.1294 17 13.0555C17 11.9816 16.1294 11.1111 15.0555 11.1111C13.9816 11.1111 13.1111 11.9816 13.1111 13.0555C13.1111 14.1294 13.9816 15 15.0555 15Z" stroke="#979797" stroke-linecap="round" stroke-linejoin="round"/>
</svg>
