<svg version="1.1" id="a" xmlns="http://www.w3.org/2000/svg" x="0" y="0" viewBox="0 0 516 440" style="enable-background:new 0 0 516 440" xml:space="preserve"><style>.st0{fill:#73350b}.st2{fill:#c47d76}</style><path class="st0" d="M476.5 188.5c20.7-19.5 33.7-47.2 33.7-77.8 0-58.9-47.9-106.9-106.9-106.9-31.3 0-59.5 13.5-79 35H191.7c-19.6-21.5-47.7-35-79-35-58.9.1-106.9 48-106.9 106.9 0 30.6 13 58.3 33.7 77.8l-5.5 8.8c-15.5 24.4-15.5 56 0 80.4l78.3 123.6c13.8 21.8 37.5 34.9 63.4 34.9h164.5c25.9 0 49.5-13 63.4-34.9L482 277.7c15.5-24.4 15.5-56 0-80.4l-5.5-8.8z"/><path d="m376.6 390.4-30.7-20.2 50.8-10.9 10.7-16.9-49.7-31.1 75.8-10 9-14.2-12.6-5.6-52.1-18.2 56-14 31.5-9.2c.5-9.6-1.8-19.3-7.2-27.7L438.2 181c25.9-12.8 43.6-39.5 43.6-70.3 0-43.4-35.1-78.5-78.5-78.5-27.3 0-51.3 13.9-65.4 35h-60l-1.8 28.5c28.4 4 55.1 17.3 72.3 40-8.1-1.4-16-3.2-24-4.6-16.8-3.2-33.4-5.3-50-6.2l-1.5 24.4c21 3.3 40.6 13.8 52.6 31.4-11.5-1.4-23.9-3.7-35.2-4.8-6.4-.7-12.7-1.2-18.9-1.5l-2.7 43.5h-21.3l-2.7-43.5c-6.2.3-12.5.8-18.9 1.5-11.3 1.1-23.7 3.3-35.2 4.8 11.9-17.6 31.5-28.1 52.6-31.4l-1.5-24.4c-9.1.5-18.2 1.3-27.4 2.6-15.4 1.9-31.2 5.4-46.7 8.3 17.2-22.7 43.9-36 72.3-40L238 67.2h-60c-14.1-21.1-38.1-35-65.3-35-43.4 0-78.5 35.2-78.5 78.5 0 30.8 17.8 57.5 43.7 70.3L58 212.4c-5.3 8.4-7.7 18.1-7.2 27.7l31.5 9.2 56 14-52.1 18.2-12.6 5.6 9 14.2 75.8 10-49.7 31.1 10.7 16.9 50.8 10.9-30.7 20.2c8.8 10.9 22.1 17.4 36.3 17.4h164.5c14.1 0 27.5-6.5 36.3-17.4z" style="fill:#ffc926"/><path class="st2" d="M91.4 159.9s48-75.2 49.9-77.3c-52.5-35.7-103.8 44.5-49.9 77.3zM372 80c2.9 2.7 50.6 76.9 50.6 76.9 50.3-33.9.7-109.8-50.6-76.9z"/><path d="M296.9 287.8c-15.1 0-28.9 5.2-38.9 13.6-10.1-8.4-23.8-13.6-38.9-13.6-30.9 0-56 21.6-56 48.4s25.1 48.4 56 48.4c15.1 0 28.9-5.2 38.9-13.6 10.1 8.4 23.8 13.6 38.9 13.6 30.9 0 56-21.6 56-48.4s-25-48.4-56-48.4z" style="fill:#fff"/><path class="st0" d="M285 282c-6.8 0-16.4 2-27 2s-20.2-2-27-2-10.5 1.8-10.5 8.8c0 14.4 16.8 26 37.5 26s37.5-11.6 37.5-26c0-7-4-8.8-10.5-8.8z"/><g><path class="st0" d="M175.2 221c-16.2 0-29.4 12.9-29.4 28.7s13.2 28.7 29.4 28.7 29.4-12.9 29.4-28.7-13.1-28.7-29.4-28.7zM340.8 221c-16.2 0-29.4 12.9-29.4 28.7s13.2 28.7 29.4 28.7 29.4-12.9 29.4-28.7S357 221 340.8 221z"/></g></svg>