<svg xmlns="http://www.w3.org/2000/svg" id="a" viewBox="0 0 556 480"><defs><style>.c{fill:#8f8f8f}.e{fill:#73350b}.f{fill:#fff}</style></defs><path d="M76.23 472.59c-25.13 0-45.83-18.87-48.15-43.9-.58-6.28-5.47-63.44 2.5-134.13 4.66-41.31 12.84-79.15 24.31-112.46 14.55-42.25 34.53-77.5 59.38-104.75C156.58 30.94 211.67 7.41 278 7.41s121.41 23.53 163.72 69.93c24.85 27.26 44.83 62.5 59.38 104.76 11.47 33.31 19.65 71.15 24.31 112.46 7.97 70.68 3.09 127.85 2.5 134.14-2.31 25.02-23.01 43.89-48.14 43.89z" class="f"/><path d="M426.94 90.82C388.58 48.75 338.47 27.41 278 27.41S167.42 48.74 129.06 90.82C28.4 201.22 47.15 417.69 48 426.85c1.35 14.58 13.58 25.74 28.23 25.74h403.54c14.64 0 26.88-11.15 28.23-25.74.85-9.16 19.6-225.63-81.06-336.03" class="e"/><path d="M0 0h556v480H0z" style="fill:none"/><path d="M278 55.76c-235.86 0-201.77 368.48-201.77 368.48h403.54S513.86 55.76 278 55.76" class="c"/><path d="M244.12 332.69h.37l-.32-.22c-.02.08-.03.15-.05.22" class="c"/><path d="m305.69 287.78-55.41-.47c9.47-167.26-147.7-189.93-147.7 39.28 0 36.98 5.03 69.52 13.88 97.65h323.08c8.85-28.14 13.88-60.68 13.88-97.67-4.46-229.02-158.08-206.42-147.73-38.79m-61.56 44.92c.02-.08.03-.15.05-.22l.32.22z" class="f"/><circle cx="183.1" cy="253.81" r="28.53" class="e" transform="rotate(-14.87 183.108 253.801)"/><circle cx="372.87" cy="254.62" r="28.53" class="e" transform="rotate(-84.35 372.876 254.613)"/><path d="m227.59 320.86 16.58 11.6.32.22 20.53 14.37c6.94 4.86 18.31 4.86 25.25 0l20.52-14.36.95-.67 15.96-11.17c6.94-4.86 6.94-12.82 0-17.68l-22.02-15.41-15.41-10.79c-6.94-4.86-18.31-4.86-25.25 0l-14.74 10.32-22.68 15.88c-6.94 4.86-6.94 12.82 0 17.68h-.01Z" style="fill:#ffc926"/></svg>