<svg width="20" height="20" viewBox="0 0 20 20" fill="none" xmlns="http://www.w3.org/2000/svg">
<path fill-rule="evenodd" clip-rule="evenodd" d="M8.96094 1L9.42994 1.174V2.56014L9.93092 2.744V3.9222L10.2809 4.051V11.897C10.2808 11.9485 10.2908 11.9996 10.3105 12.0472C10.3301 12.0948 10.359 12.1381 10.3954 12.1745C10.4319 12.2109 10.4751 12.2398 10.5227 12.2594C10.5704 12.2791 10.6214 12.2891 10.6729 12.289V12.297H10.8569V4.37801H11.2379V10.8565C11.9298 8.20546 14.4074 6.60849 17.7781 6.59C18.3984 6.57896 19.0185 6.62279 19.6311 6.721V7.811C19.0383 7.6711 18.4311 7.60161 17.8221 7.604C14.7435 7.61486 12.6541 9.29482 12.6136 12.297H16.1429V13.085H12.6516C12.9403 15.612 14.8313 17.0621 17.7781 17.052C18.4023 17.054 19.0247 16.9845 19.6331 16.845V17.887C18.9105 18.0189 18.1776 18.0858 17.4431 18.087C15.0779 18.1017 13.0218 17.2766 11.9138 15.5957C9.16855 18.4712 6.56396 16.714 6.56396 16.714L9.22297 14.958C10.054 14.4044 10.7187 14.149 11.2396 14.0592C11.1884 13.8616 11.1469 13.6566 11.1153 13.4443C5.1895 15.8533 2.22705 11.701 2.22705 11.701L6.23705 11.734C7.13071 11.7413 7.87959 11.8251 8.50391 11.9509V11.0128C0.50922 10.0492 1.00607 5.00999 1.00607 5.00999L5.73607 7.048C7.06267 7.6153 7.9352 8.1826 8.50391 8.70547V3.397L8.74292 3.48497V2.308L8.96094 2.38801V1Z" fill="#384860"/>
</svg>
