<svg width="21" height="19" viewBox="0 0 21 19" fill="none" xmlns="http://www.w3.org/2000/svg">
<path d="M4.37569 17.5585C4.60272 17.5585 4.78677 17.3745 4.78677 17.1474C4.78677 16.9204 4.60272 16.7363 4.37569 16.7363C4.14865 16.7363 3.9646 16.9204 3.9646 17.1474C3.9646 17.3745 4.14865 17.5585 4.37569 17.5585Z" stroke="#979797" stroke-linecap="round" stroke-linejoin="round"/>
<path d="M8.89766 17.5585C9.1247 17.5585 9.30875 17.3745 9.30875 17.1474C9.30875 16.9204 9.1247 16.7363 8.89766 16.7363C8.67062 16.7363 8.48657 16.9204 8.48657 17.1474C8.48657 17.3745 8.67062 17.5585 8.89766 17.5585Z" stroke="#979797" stroke-linecap="round" stroke-linejoin="round"/>
<path d="M1.08691 8.92603H2.73126L3.83298 14.4305C3.87057 14.6198 3.97353 14.7898 4.12384 14.9108C4.27415 15.0318 4.46223 15.096 4.65515 15.0923H8.65092C8.84385 15.096 9.03193 15.0318 9.18224 14.9108C9.33255 14.7898 9.43551 14.6198 9.4731 14.4305L10.1308 10.9815H3.14235" stroke="#979797" stroke-linecap="round" stroke-linejoin="round"/>
<path d="M12.5094 15.2684C16.4014 15.2684 19.5566 12.1132 19.5566 8.22117C19.5566 4.3291 16.4014 1.17395 12.5094 1.17395C8.6173 1.17395 5.46216 4.3291 5.46216 8.22117" stroke="#979797" stroke-linecap="round" stroke-linejoin="round"/>
<path d="M12.5095 3.99304V8.22137L15.3284 9.63082" stroke="#979797" stroke-linecap="round" stroke-linejoin="round"/>
</svg>
