<svg xmlns="http://www.w3.org/2000/svg" id="a" viewBox="0 0 556 480"><defs><style>.d{fill:#73350b}</style></defs><path d="M278 479.95c-64.09 0-124.33-24.96-169.64-70.28S38.09 304.09 38.09 240s24.95-124.35 70.27-169.67S213.92.05 278 .05s124.32 24.96 169.64 70.28c45.31 45.32 70.27 105.58 70.27 169.67s-24.95 124.35-70.27 169.67S342.07 479.95 278 479.95" style="fill:#fff"/><path d="M433.5 84.47C391.96 42.93 336.74 20.05 278 20.05S164.04 42.93 122.5 84.47C80.97 126.01 58.09 181.25 58.09 240s22.87 113.98 64.41 155.53c41.53 41.54 96.76 64.42 155.5 64.42s113.96-22.88 155.5-64.42c41.53-41.54 64.41-96.78 64.41-155.53S475.04 126.02 433.5 84.47" class="d"/><path d="M278 48.35C172.18 48.35 86.39 134.16 86.39 240S172.18 431.65 278 431.65 469.61 345.84 469.61 240 383.82 48.35 278 48.35" style="fill:#fff4c5"/><circle cx="206.17" cy="279.67" r="31.74" class="d"/><circle cx="349.83" cy="280.6" r="31.74" class="d"/><path d="m316.65 337.25-28.16 20.47c-5.5 4-12.89 4-18.4 0l-28.16-20.47c-5.13-3.73-12.31-2.59-16.03 2.54-3.73 5.13-2.59 12.31 2.54 16.04l28.16 20.47c6.79 4.93 14.74 7.4 22.69 7.4s15.91-2.47 22.69-7.4l28.16-20.47c5.13-3.73 6.27-10.91 2.54-16.04s-10.9-6.27-16.03-2.54M220.68 189.79a9.98 9.98 0 0 1-8.7-5.07c-23.89-42.23-31.05-91.42-20.17-138.52 1.24-5.37 6.6-8.72 11.97-7.48s8.72 6.6 7.48 11.97c-9.75 42.21-3.32 86.32 18.1 124.19 2.71 4.8 1.02 10.89-3.77 13.6a9.9 9.9 0 0 1-4.91 1.3ZM296.91 189.79a9.98 9.98 0 0 1-8.7-5.07c-23.89-42.23-31.05-91.42-20.17-138.52 1.24-5.37 6.6-8.72 11.97-7.48s8.72 6.6 7.48 11.97c-9.75 42.21-3.32 86.32 18.1 124.19 2.71 4.8 1.02 10.89-3.77 13.6a9.9 9.9 0 0 1-4.91 1.3ZM373.15 189.79a9.98 9.98 0 0 1-8.7-5.07C340.56 142.49 333.4 93.3 344.27 46.2c1.24-5.37 6.6-8.72 11.97-7.48s8.72 6.6 7.48 11.97c-9.75 42.21-3.32 86.32 18.1 124.19 2.71 4.8 1.02 10.89-3.77 13.6a9.9 9.9 0 0 1-4.91 1.3Z" class="d"/><path d="M0 0h556v480H0z" style="fill:none"/></svg>