<svg xmlns="http://www.w3.org/2000/svg" viewBox="0 0 516 440"><path d="M409 18.9C399.8 7.2 386.5.5 372.5.5c-12 0-23.6 5-32.5 14.1l-82 83.5-82-83.5C167.1 5.5 155.5.5 143.5.5c-13.9 0-27.2 6.7-36.5 18.4C99 29 94.6 42.3 94.6 56.3v203.8c0 16 5.9 31.2 16.2 41.6l127 129.4c10.6 11.2 29.9 11.2 40.5 0l126.9-129.4c10.3-10.5 16.2-25.6 16.2-41.6V56.3c-.1-14-4.5-27.2-12.4-37.4zm-16 241.2c0 8.5-3 16.6-8.1 21.8L258 411.2 131.1 281.9c-5.1-5.2-8.1-13.2-8.1-21.8V56.3c0-22.6 19.3-35.5 32.8-21.8L258 138.7 360.2 34.5c13.4-13.7 32.8-.8 32.8 21.8v203.8z" style="fill:#73350b"/><path d="M155.8 34.5c-13.5-13.7-32.8-.9-32.8 21.8v203.8c0 8.5 3 16.6 8.1 21.8L258 411.2V138.6L155.8 34.5z" style="fill:#ffd739"/><path d="M360.2 34.5 258 138.7v272.6l127-129.4c5.1-5.2 8.1-13.2 8.1-21.8V56.3c-.1-22.7-19.4-35.5-32.9-21.8z" style="fill:#2bad38"/></svg>