<svg width="19" height="16" viewBox="0 0 19 16" fill="none" xmlns="http://www.w3.org/2000/svg">
<path d="M16.2663 2.2377C15.8753 1.84531 15.4111 1.53404 14.9002 1.32168C14.3893 1.10931 13.8417 1 13.2887 1C12.7357 1 12.1881 1.10931 11.6772 1.32168C11.1663 1.53404 10.7021 1.84531 10.3112 2.2377L9.4998 3.05166L8.68843 2.2377C7.89874 1.44548 6.82768 1.00041 5.71089 1.00041C4.59409 1.00041 3.52303 1.44548 2.73334 2.2377C1.94365 3.02993 1.5 4.10441 1.5 5.22479C1.5 6.34516 1.94365 7.41965 2.73334 8.21187L3.5447 9.02583L9.4998 15L15.4549 9.02583L16.2663 8.21187C16.6574 7.81967 16.9677 7.354 17.1794 6.84146C17.391 6.32893 17.5 5.77958 17.5 5.22479C17.5 4.67 17.391 4.12064 17.1794 3.60811C16.9677 3.09558 16.6574 2.6299 16.2663 2.2377V2.2377Z" stroke="#38AD58" stroke-width="1.5" stroke-linecap="round" stroke-linejoin="round"/>
</svg>
