<svg width="220" height="57" viewBox="0 0 220 57" fill="none" xmlns="http://www.w3.org/2000/svg">
<path d="M51.8953 42.4115C51.5425 42.4115 51.2562 42.1266 51.2562 41.7756V30.1026C51.2562 20.4219 43.0812 12.5463 33.0323 12.5463C22.9835 12.5463 14.8084 20.4219 14.8084 30.1026V35.828C14.8084 36.179 14.5221 36.4639 14.1693 36.4639C13.8166 36.4639 13.5303 36.179 13.5303 35.828V30.1026C13.5303 25.0698 15.5617 20.3397 19.2487 16.783C22.9315 13.2314 27.826 11.2754 33.0306 11.2754C38.2353 11.2754 43.1306 13.2314 46.8125 16.783C50.5004 20.3397 52.531 25.0698 52.531 30.1026V41.7756C52.531 42.1266 52.2447 42.4115 51.8919 42.4115H51.8953Z" fill="#F08300"/>
<path d="M28.9327 48.9753C28.6805 48.9753 28.441 48.8286 28.3362 48.5836C28.2186 48.3097 28.3064 48.0003 28.5296 47.8239C28.5876 47.7468 28.827 47.3754 29.1994 46.1494C30.0166 43.4567 29.1449 40.9004 28.5083 39.0343C28.2348 38.2323 27.9988 37.5404 27.9442 36.9749C27.7644 35.0953 29.2215 32.2516 29.2837 32.1312L29.4576 31.7955L29.8368 31.7819C33.6022 31.6437 35.2681 30.7433 36.0026 30.0125C37.0072 29.0129 37.1912 27.9895 36.5488 26.9713C36.2514 26.7067 34.7014 26.0861 33.8629 25.7512C32.6393 25.2612 32.1553 25.0585 31.921 24.8618C31.5094 24.5159 31.3032 23.8122 31.0655 22.9983C30.9394 22.5667 30.809 22.1208 30.6641 21.8037C30.4656 21.3687 29.4235 20.8388 27.0947 20.6531C25.1937 20.5031 23.9666 21.4094 23.4946 22.2318C23.1086 22.9033 20.6767 26.0785 19.6107 27.3028C19.3712 27.5775 19.2571 27.8149 19.2724 28.0073C19.2997 28.3575 19.7692 28.7509 20.1117 29.0374C20.4219 29.2977 21.1896 29.7361 22.0017 30.0379C23.0216 30.4169 23.4775 30.3516 23.5568 30.299C23.97 29.9887 24.9227 27.6122 25.5515 25.5876C25.6572 25.2467 26.021 25.056 26.3627 25.162C26.7053 25.2671 26.897 25.6283 26.7905 25.9691C26.776 26.0157 26.4309 27.1239 25.9725 28.3227C25.0982 30.6085 24.6066 31.1537 24.2759 31.3732C22.9731 32.2372 19.9992 30.6314 19.2758 30.0243C18.7876 29.6148 18.0488 28.9959 17.9781 28.1074C17.9346 27.558 18.1536 27.0018 18.6291 26.4566C19.6874 25.2408 22.0503 22.1419 22.3672 21.5909C23.2381 20.0749 25.134 19.2016 27.1978 19.3653C29.7993 19.5721 31.362 20.2131 31.8443 21.2687C32.0284 21.6705 32.1715 22.1623 32.3104 22.6371C32.4357 23.0661 32.624 23.7105 32.7578 23.8732C32.9512 23.9945 33.7547 24.3158 34.3461 24.5524C36.5539 25.4358 37.337 25.8038 37.6207 26.2438C38.0919 26.9721 38.9662 28.8874 36.9186 30.9239C35.6626 32.1736 33.4284 32.8892 30.2739 33.0528C29.8436 33.9685 29.1304 35.7583 29.2352 36.8512C29.2752 37.2666 29.4882 37.8931 29.7362 38.6189C30.3898 40.5359 31.3774 43.4329 30.4409 46.5216C29.864 48.4225 29.4678 48.8032 29.1875 48.9227C29.104 48.9583 29.0179 48.9744 28.9327 48.9744V48.9753Z" fill="#F08300"/>
<path d="M16.1725 39.7293C16.0804 39.7293 15.9876 39.7098 15.8981 39.6683C15.5734 39.5174 15.4328 39.1333 15.5845 38.8103C17.1873 35.396 19.7607 31.8046 19.8697 31.6528C20.0785 31.3628 20.4832 31.2959 20.7747 31.5036C21.0661 31.7113 21.1334 32.114 20.9246 32.404C20.8991 32.4404 18.3104 36.0514 16.7596 39.3563C16.6496 39.5911 16.4153 39.7285 16.1716 39.7285L16.1725 39.7293Z" fill="#F08300"/>
<path d="M22.8251 48.9748C22.7867 48.9748 22.7475 48.9714 22.7083 48.9646C22.3556 48.901 22.1221 48.5653 22.186 48.2143C22.4016 47.0332 21.708 44.1438 21.4225 43.1298C21.3262 42.7864 21.5273 42.4303 21.8724 42.3345C22.2175 42.2387 22.5754 42.4388 22.6717 42.7822C22.785 43.184 23.7701 46.7602 23.4624 48.4457C23.4054 48.7577 23.1327 48.9756 22.8251 48.9756V48.9748Z" fill="#F08300"/>
<path d="M26.2297 48.837C26.1922 48.837 26.1539 48.8336 26.1147 48.8268C25.7619 48.764 25.5268 48.4291 25.5898 48.0781C25.9332 46.1654 25.6793 43.0403 25.6767 43.0089C25.6469 42.6537 25.9128 42.3416 26.2698 42.3128C26.6268 42.2831 26.9404 42.5477 26.9694 42.9029C26.9804 43.0377 27.2403 46.2265 26.8671 48.3062C26.8109 48.6191 26.5374 48.8387 26.2289 48.8387L26.2297 48.837Z" fill="#F08300"/>
<path d="M28.4622 26.3089C28.4622 26.3089 28.6539 25.7027 29.1413 25.5637C29.6287 25.4255 30.3249 25.3729 30.3249 25.8409C30.3249 26.3089 29.8724 26.8287 29.3935 26.9499C28.9147 27.0712 28.4102 26.8287 28.4622 26.3089Z" fill="#F08300"/>
<path d="M41.1883 41.991C41.1108 41.991 41.0324 41.9774 40.9565 41.9477C40.5109 41.7781 36.6134 40.2181 37.1136 37.8306C37.2533 37.1625 37.7109 36.8005 38.1139 36.4817C38.6226 36.0798 39.1492 35.6635 39.4688 34.4935C39.8403 33.1353 41.4772 32.2781 43.4464 32.3654C43.9824 31.3353 45.2136 28.9961 45.5545 28.5722C45.6661 28.434 45.8297 28.3466 46.007 28.3322C46.185 28.3178 46.3606 28.3763 46.4935 28.4942C46.5736 28.5654 48.4474 30.2687 48.6152 33.7627C48.6323 34.1187 48.3562 34.4214 47.9983 34.4384C47.6396 34.4553 47.3362 34.1806 47.3192 33.8245C47.2314 31.9856 46.6094 30.7545 46.145 30.0796C45.7045 30.8613 45.0168 32.1501 44.4025 33.3387C44.2789 33.5778 44.0199 33.716 43.7514 33.6847C42.2995 33.5185 40.9404 34.034 40.7214 34.8335C40.2894 36.4122 39.4986 37.037 38.9217 37.494C38.5638 37.7772 38.4241 37.9027 38.3841 38.096C38.1668 39.1354 40.3362 40.3292 41.4218 40.7446C41.7558 40.8727 41.9228 41.2457 41.795 41.5781C41.6962 41.835 41.4499 41.9926 41.1892 41.9926L41.1883 41.991Z" fill="#F08300"/>
<path d="M41.7209 32.2912C41.415 32.2912 41.1602 32.0504 41.1483 31.7435C41.1407 31.5595 41.0793 29.9265 41.2114 29.2542C41.2659 28.9778 41.4517 28.7642 41.709 28.6845C41.9067 28.6226 42.4324 28.4589 43.9841 29.9562C44.2116 30.1758 44.2176 30.537 43.9969 30.7634C43.7762 30.9897 43.4132 30.9957 43.1857 30.7761C42.8875 30.4887 42.5509 30.2072 42.2884 30.0173C42.2663 30.5421 42.2774 31.2492 42.2952 31.6977C42.308 32.0131 42.0618 32.2785 41.7448 32.2912C41.7371 32.2912 41.7295 32.2912 41.7209 32.2912Z" fill="#F08300"/>
<path d="M49.213 41.107C49.1653 41.107 49.1167 41.1011 49.0681 41.0883C48.7614 41.0087 48.5773 40.6975 48.6574 40.3923C49.3996 37.5528 48.0959 35.9657 48.0396 35.8996C47.8368 35.6596 47.8658 35.2993 48.1061 35.0958C48.3464 34.8923 48.7051 34.9186 48.9113 35.156C48.9838 35.2391 50.6684 37.2341 49.7686 40.6797C49.7012 40.9366 49.4686 41.107 49.2138 41.107H49.213Z" fill="#F08300"/>
<path d="M51.1384 48.8802C51.1222 48.8802 51.106 48.8802 51.0889 48.8785C50.7728 48.8522 50.5393 48.5758 50.5657 48.2613C50.9347 43.9365 48.9715 42.6935 48.8871 42.6426C48.6127 42.485 48.5215 42.1373 48.6792 41.8643C48.8377 41.5913 49.1913 41.4998 49.4657 41.6566C49.5756 41.7193 52.1438 43.2548 51.7084 48.3571C51.6828 48.6547 51.4323 48.8802 51.1375 48.8802H51.1384Z" fill="#F08300"/>
<path d="M33.0322 8.6607C32.5848 8.6607 32.2227 8.30037 32.2227 7.85525V0.805449C32.2227 0.360333 32.5848 0 33.0322 0C33.4795 0 33.8416 0.360333 33.8416 0.805449V7.85525C33.8416 8.30037 33.4795 8.6607 33.0322 8.6607Z" fill="#F08300"/>
<path d="M46.6867 12.8728C46.4796 12.8728 46.2725 12.7939 46.1141 12.6371C45.7979 12.3225 45.7979 11.8121 46.1141 11.4976L51.6868 5.95271C52.0029 5.63816 52.515 5.63816 52.832 5.95271C53.1482 6.26726 53.1482 6.77766 52.832 7.09221L47.2593 12.6371C47.1016 12.7939 46.8937 12.8728 46.6867 12.8728Z" fill="#F08300"/>
<path d="M19.2943 12.788C19.0873 12.788 18.8802 12.7092 18.7217 12.5523L13.2342 7.09221C12.918 6.77766 12.918 6.26726 13.2342 5.95271C13.5503 5.63816 14.0633 5.63816 14.3794 5.95271L19.8669 11.4128C20.1831 11.7274 20.1831 12.2378 19.8669 12.5523C19.7093 12.7092 19.5014 12.788 19.2943 12.788Z" fill="#F08300"/>
<path d="M41.7224 35.9583C41.7224 35.9583 42.4186 35.9193 42.6162 36.2695C42.8139 36.6196 43.0363 37.431 42.4927 37.4819C41.9491 37.5328 41.2878 37.1648 41.2214 36.9062C41.1549 36.6476 41.3193 35.9287 41.7224 35.9583Z" fill="#F08300"/>
<path d="M55.6993 48.8992H51.2905L51.9662 47.8725C51.9858 47.8428 53.9227 44.8872 54.295 43.2721C54.5941 41.974 54.8523 40.854 55.6533 40.4369C56.0436 40.2343 56.4935 40.2317 56.9911 40.431C57.7691 40.7421 58.8819 41.7875 57.5884 45.2908C56.9076 47.1357 55.9396 48.5507 55.8987 48.6101L55.7002 48.8983L55.6993 48.8992ZM53.7216 47.5723H54.9835C55.2835 47.0907 55.8851 46.0547 56.3358 44.8329C56.9485 43.1737 57.0132 41.8689 56.4926 41.6612C56.3452 41.6018 56.2787 41.6078 56.2702 41.612C56.0137 41.7451 55.7308 42.9762 55.5945 43.568C55.3176 44.7711 54.3709 46.4862 53.7216 47.5723Z" fill="#F08300"/>
<path d="M55.5616 47.7773H41.317C41.1594 48.2309 41.2403 48.6845 41.012 49.1042H55.5616C56.3737 49.1042 57.034 49.7613 57.034 50.5693C57.034 51.3773 56.3737 52.0344 55.5616 52.0344H21.8968C21.9087 52.4261 21.5721 52.8771 21.3906 53.3612H55.5616C57.109 53.3612 58.3676 52.109 58.3676 50.5693C58.3676 49.0296 57.109 47.7773 55.5616 47.7773Z" fill="#F08300"/>
<path d="M38.0743 49.0661C38.0411 48.6192 38.2157 48.1707 38.4441 47.7773H18.0456C17.5267 48.2123 16.8808 48.6794 16.125 49.1042H38.0786C38.0768 49.0915 38.0751 49.0796 38.0743 49.0669V49.0661Z" fill="#F08300"/>
<path d="M15.406 41.8331C15.406 41.8331 14.3221 38.7164 7.65528 35.6794C0.988431 32.6425 0.547043 31.4038 0.305898 31.2842C0.0647529 31.1647 -0.0553934 31.804 0.0247042 32.1236C0.104802 32.4432 0.547042 38.2772 4.68314 40.8742C8.81925 43.4711 12.8352 43.6712 15.1648 42.9124C15.1648 42.9124 16.0187 42.7869 15.406 41.8339V41.8331Z" fill="#F08300"/>
<path d="M17.2932 45.9481C17.2932 45.9481 16.8109 44.9095 12.5947 44.6297C8.37765 44.35 2.71543 43.9905 2.19309 43.9506C1.67075 43.9108 1.33673 43.921 1.9119 44.5899C2.77337 45.5912 5.62536 49.7287 10.4661 49.8245C13.9606 49.8931 16.5306 47.6269 17.2932 46.7078C17.2932 46.7078 17.6869 46.3042 17.2932 45.949V45.9481Z" fill="#F08300"/>
<path d="M19.9831 50.2234C19.9831 50.2234 19.3006 49.4663 18.3369 49.825C17.3732 50.1836 10.305 53.2604 9.02001 53.5003C7.73504 53.7403 8.69877 54.3796 9.02001 54.5788C9.34125 54.7789 13.036 57.2563 16.4094 55.6174C19.7829 53.9794 20.7867 51.1823 19.984 50.2234H19.9831Z" fill="#F08300"/>
<path d="M38.4521 51.6154C38.3779 51.6154 38.308 51.6111 38.2416 51.6044C37.6792 51.5467 37.3971 51.261 37.2591 51.0312C36.8799 50.4004 37.0589 49.4212 37.9425 47.288C38.7835 45.2574 39.9637 43.6813 41.1796 42.964C41.483 42.7851 41.8749 42.8843 42.0547 43.1861C42.2345 43.488 42.1348 43.878 41.8315 44.0569C40.8626 44.6283 39.8503 46.0171 39.1235 47.7721C38.383 49.5602 38.32 50.1461 38.3481 50.3368C38.3549 50.3377 38.3634 50.3385 38.3728 50.3402C39.3502 50.442 40.3531 48.77 40.6275 48.1765C40.7749 47.8577 41.3245 47.3787 41.6449 47.5254C41.9653 47.6721 41.9354 48.3876 41.7889 48.7064C41.7752 48.737 41.4404 49.4585 40.8814 50.1639C39.9552 51.3339 39.0801 51.6145 38.4529 51.6154H38.4521Z" fill="#F08300"/>
<path d="M144.647 19.4805C144.749 19.4805 144.832 19.5129 144.899 19.5764C144.966 19.6406 144.999 19.7206 144.999 19.8165C144.999 19.9124 144.966 19.993 144.899 20.0566C144.832 20.1207 144.748 20.1525 144.647 20.1525H142.335C142.234 20.1525 142.15 20.119 142.084 20.0527C142.017 19.9864 141.983 19.9031 141.983 19.8022V15.6959C141.983 15.5951 142.018 15.5118 142.087 15.4455C142.156 15.3791 142.246 15.3457 142.356 15.3457C142.448 15.3457 142.53 15.3791 142.601 15.4455C142.673 15.5118 142.708 15.5956 142.708 15.6959V19.5962L142.563 19.4794H144.648L144.647 19.4805Z" fill="#F08300"/>
<path d="M146.221 16.0612C146.088 16.0612 145.991 16.037 145.931 15.9888C145.871 15.9406 145.841 15.8595 145.841 15.7449V15.6353C145.841 15.5207 145.873 15.4407 145.938 15.3947C146.002 15.3492 146.099 15.3262 146.227 15.3262C146.366 15.3262 146.464 15.3503 146.524 15.3985C146.584 15.4468 146.614 15.5257 146.614 15.6353V15.7449C146.614 15.8639 146.583 15.9466 146.521 15.9921C146.459 16.0381 146.359 16.0606 146.221 16.0606V16.0612ZM146.573 19.8035C146.573 19.9044 146.54 19.9877 146.476 20.054C146.412 20.1203 146.329 20.1538 146.228 20.1538C146.127 20.1538 146.044 20.1203 145.98 20.054C145.915 19.9877 145.883 19.9044 145.883 19.8035V16.8647C145.883 16.7638 145.917 16.6805 145.983 16.6142C146.05 16.5479 146.132 16.5144 146.229 16.5144C146.326 16.5144 146.413 16.5479 146.477 16.6142C146.541 16.6805 146.573 16.7644 146.573 16.8647V19.8035H146.573Z" fill="#F08300"/>
<path d="M149.541 16.4595C149.863 16.4595 150.149 16.5395 150.4 16.6996C150.651 16.8596 150.849 17.0805 150.997 17.3622C151.144 17.6439 151.218 17.9678 151.218 18.334C151.218 18.7001 151.144 19.0251 150.997 19.309C150.85 19.5929 150.652 19.816 150.404 19.9788C150.155 20.1416 149.874 20.2227 149.561 20.2227C149.387 20.2227 149.221 20.1942 149.065 20.1366C148.908 20.0796 148.77 20.0062 148.65 19.9169C148.531 19.8275 148.433 19.7327 148.357 19.6318C148.281 19.531 148.234 19.4395 148.216 19.3573L148.402 19.2613V19.8588C148.402 19.9547 148.368 20.0374 148.302 20.106C148.235 20.1745 148.154 20.209 148.057 20.209C147.96 20.209 147.871 20.1756 147.805 20.1092C147.738 20.0429 147.705 19.9596 147.705 19.8588V15.4225C147.705 15.3266 147.738 15.2438 147.805 15.1753C147.871 15.1068 147.955 15.0723 148.057 15.0723C148.158 15.0723 148.235 15.1068 148.302 15.1753C148.368 15.2438 148.402 15.3266 148.402 15.4225V17.3523L148.292 17.2904C148.306 17.2032 148.349 17.1128 148.423 17.0191C148.496 16.9254 148.59 16.8349 148.702 16.7478C148.815 16.6606 148.943 16.591 149.089 16.5384C149.234 16.4858 149.385 16.4595 149.541 16.4595H149.541ZM149.465 17.098C149.244 17.098 149.051 17.1517 148.888 17.2592C148.725 17.3666 148.598 17.5135 148.506 17.6987C148.414 17.884 148.367 18.0961 148.367 18.334C148.367 18.5718 148.413 18.7861 148.506 18.9758C148.598 19.166 148.725 19.3156 148.888 19.4258C149.051 19.5354 149.244 19.5907 149.465 19.5907C149.685 19.5907 149.869 19.5359 150.03 19.4258C150.191 19.3161 150.318 19.1649 150.41 18.9725C150.502 18.7801 150.548 18.5675 150.548 18.334C150.548 18.1005 150.502 17.884 150.41 17.6987C150.318 17.5135 150.191 17.3671 150.03 17.2592C149.869 17.1517 149.68 17.098 149.465 17.098Z" fill="#F08300"/>
<path d="M153.896 20.2216C153.515 20.2216 153.183 20.1427 152.903 19.9849C152.622 19.827 152.405 19.6094 152.25 19.3326C152.096 19.0558 152.019 18.7385 152.019 18.3817C152.019 17.9788 152.101 17.6346 152.264 17.3485C152.427 17.0624 152.64 16.8426 152.903 16.6892C153.165 16.5357 153.443 16.459 153.738 16.459C153.963 16.459 154.177 16.5034 154.379 16.5927C154.582 16.6821 154.762 16.8054 154.921 16.9638C155.08 17.1216 155.206 17.3069 155.298 17.5201C155.39 17.7328 155.438 17.9651 155.443 18.2173C155.438 18.3088 155.401 18.3844 155.332 18.4436C155.264 18.5034 155.183 18.533 155.091 18.533H152.406L152.24 17.9492H154.835L154.704 18.0731V17.9016C154.69 17.7415 154.635 17.6018 154.538 17.4828C154.442 17.3639 154.323 17.2702 154.183 17.2011C154.042 17.1326 153.894 17.0981 153.738 17.0981C153.599 17.0981 153.467 17.12 153.341 17.1633C153.214 17.2066 153.102 17.2767 153.003 17.3727C152.904 17.4686 152.825 17.5957 152.768 17.7536C152.71 17.9114 152.682 18.1071 152.682 18.3406C152.682 18.5922 152.735 18.8119 152.84 18.9999C152.946 19.1879 153.089 19.3332 153.268 19.4362C153.448 19.5393 153.646 19.5908 153.862 19.5908C154.032 19.5908 154.171 19.5738 154.279 19.5393C154.387 19.5047 154.479 19.4625 154.555 19.4121C154.631 19.3617 154.697 19.3135 154.752 19.268C154.821 19.2269 154.887 19.206 154.952 19.206C155.039 19.206 155.11 19.2345 155.165 19.2921C155.221 19.3496 155.248 19.417 155.248 19.4949C155.248 19.5957 155.197 19.6872 155.096 19.7695C154.972 19.8884 154.8 19.9936 154.582 20.0852C154.363 20.1767 154.135 20.2227 153.895 20.2227L153.896 20.2216Z" fill="#F08300"/>
<path d="M156.773 20.1531C156.672 20.1531 156.588 20.1197 156.522 20.0534C156.455 19.9871 156.421 19.9037 156.421 19.8029V16.8914C156.421 16.7906 156.455 16.7073 156.522 16.641C156.588 16.5746 156.672 16.5412 156.773 16.5412C156.875 16.5412 156.952 16.5746 157.019 16.641C157.085 16.7073 157.119 16.7911 157.119 16.8914V17.6604L157.05 17.365C157.087 17.2367 157.143 17.1178 157.219 17.0082C157.295 16.8986 157.386 16.8021 157.492 16.7199C157.597 16.6377 157.716 16.5735 157.847 16.5275C157.978 16.482 158.115 16.459 158.257 16.459C158.377 16.459 158.48 16.4913 158.568 16.5549C158.656 16.619 158.699 16.699 158.699 16.795C158.699 16.9188 158.667 17.0093 158.603 17.0663C158.538 17.1238 158.467 17.1523 158.389 17.1523C158.32 17.1523 158.254 17.1375 158.189 17.1079C158.125 17.0783 158.049 17.0635 157.962 17.0635C157.865 17.0635 157.766 17.0887 157.665 17.1392C157.563 17.1896 157.471 17.2641 157.389 17.3622C157.306 17.4609 157.24 17.5765 157.192 17.7092C157.144 17.8418 157.119 17.9909 157.119 18.1553V19.8034C157.119 19.9043 157.086 19.9876 157.019 20.0539C156.952 20.1202 156.871 20.1537 156.774 20.1537L156.773 20.1531Z" fill="#F08300"/>
<path d="M162.413 16.4864C162.514 16.4864 162.597 16.5198 162.661 16.5861C162.726 16.6525 162.758 16.7363 162.758 16.8366V19.8029C162.758 19.9037 162.725 19.9871 162.661 20.0534C162.597 20.1197 162.514 20.1531 162.413 20.1531C162.311 20.1531 162.229 20.1197 162.164 20.0534C162.1 19.9871 162.068 19.9037 162.068 19.8029V19.3085L162.213 19.3359C162.213 19.4138 162.179 19.5042 162.113 19.6072C162.046 19.7103 161.955 19.8078 161.84 19.8988C161.725 19.9903 161.589 20.0671 161.433 20.129C161.276 20.1909 161.108 20.2216 160.929 20.2216C160.612 20.2216 160.326 20.1405 160.073 19.9777C159.82 19.8155 159.619 19.5919 159.472 19.308C159.325 19.0241 159.251 18.7012 159.251 18.34C159.251 17.9788 159.325 17.6429 159.472 17.3617C159.619 17.08 159.818 16.8591 160.069 16.699C160.32 16.539 160.597 16.459 160.901 16.459C161.099 16.459 161.282 16.4913 161.45 16.5549C161.618 16.619 161.764 16.7012 161.888 16.8021C162.013 16.9029 162.109 17.0093 162.178 17.1216C162.247 17.234 162.282 17.3403 162.282 17.4412L162.068 17.462V16.8372C162.068 16.7413 162.1 16.6585 162.164 16.59C162.229 16.5215 162.311 16.4869 162.413 16.4869V16.4864ZM161.005 19.5902C161.221 19.5902 161.412 19.5354 161.578 19.4253C161.744 19.3156 161.872 19.1655 161.964 18.9753C162.056 18.7851 162.103 18.5735 162.103 18.34C162.103 18.1066 162.056 17.895 161.964 17.7048C161.872 17.5146 161.744 17.3661 161.578 17.2587C161.412 17.1512 161.221 17.0975 161.005 17.0975C160.788 17.0975 160.605 17.1512 160.442 17.2587C160.279 17.3661 160.15 17.5141 160.056 17.7015C159.962 17.8895 159.914 18.1022 159.914 18.34C159.914 18.5779 159.962 18.7851 160.056 18.9753C160.15 19.1655 160.279 19.3151 160.442 19.4253C160.605 19.5349 160.793 19.5902 161.005 19.5902Z" fill="#F08300"/>
<path d="M164.676 19.8034C164.676 19.9043 164.642 19.9876 164.575 20.0539C164.509 20.1202 164.427 20.1536 164.33 20.1536C164.233 20.1536 164.152 20.1202 164.085 20.0539C164.018 19.9876 163.985 19.9043 163.985 19.8034V15.4225C163.985 15.3216 164.02 15.2383 164.088 15.172C164.157 15.1057 164.24 15.0723 164.337 15.0723C164.433 15.0723 164.52 15.1057 164.582 15.172C164.644 15.2383 164.675 15.3222 164.675 15.4225V19.8034H164.676Z" fill="#F08300"/>
<path d="M169.837 16.2464L168.284 19.9476C168.257 20.0211 168.216 20.0781 168.16 20.1192C168.104 20.1603 168.043 20.1811 167.974 20.1811C167.868 20.1811 167.79 20.1526 167.739 20.0951C167.688 20.0381 167.663 19.9657 167.663 19.8786C167.663 19.8468 167.67 19.8101 167.684 19.769L169.437 15.5525C169.464 15.4747 169.51 15.4149 169.571 15.3738C169.633 15.3327 169.701 15.3146 169.775 15.319C169.849 15.319 169.915 15.3398 169.975 15.3809C170.034 15.422 170.079 15.4796 170.106 15.5525L171.839 19.707C171.857 19.7531 171.866 19.7986 171.866 19.8446C171.866 19.9455 171.832 20.0266 171.766 20.0885C171.699 20.1504 171.624 20.1811 171.542 20.1811C171.473 20.1811 171.409 20.1592 171.352 20.1159C171.294 20.0726 171.251 20.0162 171.224 19.9476L169.657 16.2601L169.837 16.2464H169.837ZM168.561 18.9726L168.872 18.3132H170.825L170.942 18.9726H168.562H168.561Z" fill="#F08300"/>
<path d="M173.014 20.1531C172.912 20.1531 172.829 20.1197 172.762 20.0534C172.695 19.9871 172.662 19.9037 172.662 19.8029V16.8914C172.662 16.7906 172.695 16.7073 172.762 16.641C172.829 16.5746 172.912 16.5412 173.014 16.5412C173.115 16.5412 173.192 16.5746 173.259 16.641C173.325 16.7073 173.359 16.7911 173.359 16.8914V17.6604L173.29 17.365C173.327 17.2367 173.383 17.1178 173.459 17.0082C173.535 16.8986 173.626 16.8021 173.732 16.7199C173.838 16.6377 173.956 16.5735 174.087 16.5275C174.218 16.482 174.355 16.459 174.498 16.459C174.617 16.459 174.721 16.4913 174.808 16.5549C174.896 16.619 174.939 16.699 174.939 16.795C174.939 16.9188 174.907 17.0093 174.843 17.0663C174.779 17.1238 174.707 17.1523 174.629 17.1523C174.56 17.1523 174.494 17.1375 174.429 17.1079C174.365 17.0783 174.289 17.0635 174.202 17.0635C174.105 17.0635 174.006 17.0887 173.905 17.1392C173.804 17.1896 173.712 17.2641 173.629 17.3622C173.546 17.4609 173.481 17.5765 173.432 17.7092C173.384 17.8418 173.36 17.9909 173.36 18.1553V19.8034C173.36 19.9043 173.326 19.9876 173.259 20.0539C173.193 20.1202 173.111 20.1537 173.014 20.1537L173.014 20.1531Z" fill="#F08300"/>
<path d="M175.712 16.5823H177.333C177.425 16.5823 177.502 16.613 177.565 16.6749C177.627 16.7369 177.658 16.8136 177.658 16.9051C177.658 16.9967 177.627 17.0723 177.565 17.1315C177.502 17.1912 177.425 17.2208 177.333 17.2208H175.712C175.62 17.2208 175.543 17.1901 175.48 17.1282C175.418 17.0663 175.387 16.9895 175.387 16.898C175.387 16.8065 175.418 16.7308 175.48 16.6716C175.543 16.6124 175.62 16.5823 175.712 16.5823ZM176.437 15.6895C176.538 15.6895 176.621 15.7229 176.685 15.7892C176.749 15.8555 176.781 15.9394 176.781 16.0397V19.2257C176.781 19.308 176.795 19.3743 176.823 19.4247C176.85 19.4751 176.888 19.5097 176.937 19.5277C176.985 19.5458 177.034 19.5551 177.085 19.5551C177.136 19.5551 177.18 19.5458 177.219 19.5277C177.258 19.5097 177.306 19.5003 177.361 19.5003C177.416 19.5003 177.467 19.5256 177.513 19.576C177.559 19.6264 177.582 19.6949 177.582 19.7821C177.582 19.8917 177.522 19.981 177.402 20.0501C177.283 20.1186 177.154 20.1531 177.016 20.1531C176.937 20.1531 176.845 20.146 176.74 20.1323C176.634 20.1186 176.531 20.0841 176.432 20.0293C176.333 19.9744 176.25 19.8862 176.184 19.7651C176.117 19.6439 176.083 19.4735 176.083 19.2537V16.0402C176.083 15.9394 176.118 15.8561 176.187 15.7898C176.256 15.7234 176.339 15.69 176.435 15.69L176.437 15.6895Z" fill="#F08300"/>
<path d="M178.554 19.5902C178.513 19.5261 178.494 19.4516 178.499 19.3672C178.504 19.2828 178.552 19.2104 178.644 19.1507C178.709 19.1096 178.776 19.0926 178.848 19.0991C178.919 19.1063 178.987 19.1413 179.052 19.2055C179.181 19.3474 179.324 19.4598 179.483 19.542C179.642 19.6242 179.834 19.6659 180.059 19.6659C180.151 19.6615 180.245 19.6467 180.342 19.6215C180.439 19.5963 180.522 19.5508 180.591 19.4839C180.66 19.4176 180.694 19.32 180.694 19.1923C180.694 19.0778 180.658 18.9873 180.584 18.921C180.51 18.8547 180.414 18.7988 180.295 18.7528C180.175 18.7073 180.044 18.6656 179.901 18.6289C179.754 18.5878 179.607 18.5417 179.459 18.4913C179.312 18.4409 179.177 18.3757 179.056 18.2956C178.934 18.2156 178.836 18.1115 178.763 17.9832C178.689 17.855 178.652 17.6971 178.652 17.5097C178.652 17.2948 178.712 17.109 178.832 16.9534C178.952 16.7977 179.11 16.6766 179.308 16.5894C179.506 16.5023 179.717 16.459 179.943 16.459C180.081 16.459 180.223 16.476 180.371 16.5105C180.518 16.545 180.661 16.5987 180.799 16.6716C180.937 16.7451 181.057 16.841 181.158 16.9599C181.203 17.0197 181.23 17.0904 181.237 17.1726C181.244 17.2548 181.206 17.3305 181.123 17.399C181.068 17.445 181.001 17.4642 180.923 17.4571C180.845 17.4499 180.78 17.4236 180.73 17.3781C180.642 17.2685 180.53 17.1836 180.391 17.1238C180.253 17.0646 180.097 17.0345 179.922 17.0345C179.835 17.0345 179.744 17.046 179.649 17.069C179.555 17.092 179.476 17.1353 179.412 17.1995C179.347 17.2636 179.315 17.3573 179.315 17.4812C179.315 17.5957 179.353 17.6873 179.429 17.7558C179.505 17.8243 179.605 17.8818 179.729 17.9273C179.854 17.9734 179.989 18.0145 180.136 18.0512C180.279 18.0879 180.421 18.1312 180.561 18.1816C180.702 18.2321 180.828 18.2973 180.941 18.3773C181.054 18.4573 181.146 18.5604 181.217 18.6864C181.288 18.8125 181.324 18.9714 181.324 19.1638C181.324 19.388 181.258 19.5793 181.127 19.7371C180.996 19.895 180.83 20.015 180.63 20.0978C180.43 20.18 180.22 20.2216 179.999 20.2216C179.737 20.2216 179.475 20.1745 179.215 20.0808C178.955 19.9871 178.736 19.8232 178.557 19.5897L178.554 19.5902Z" fill="#F08300"/>
<path d="M189.081 15.7988C189.177 15.7988 189.257 15.8334 189.319 15.9019C189.381 15.9704 189.412 16.0531 189.412 16.1491V18.7514C189.412 19.1175 189.332 19.4447 189.171 19.7336C189.01 20.0219 188.789 20.2477 188.508 20.4099C188.227 20.5727 187.903 20.6538 187.535 20.6538C187.167 20.6538 186.848 20.5727 186.566 20.4099C186.283 20.2477 186.06 20.0219 185.896 19.7336C185.733 19.4453 185.651 19.1181 185.651 18.7514V16.1491C185.651 16.0531 185.686 15.9704 185.755 15.9019C185.824 15.8334 185.914 15.7988 186.024 15.7988C186.112 15.7988 186.191 15.8334 186.262 15.9019C186.333 15.9704 186.369 16.0531 186.369 16.1491V18.7514C186.369 18.9942 186.423 19.2058 186.531 19.3866C186.639 19.5675 186.783 19.7095 186.962 19.8125C187.142 19.9156 187.333 19.9671 187.535 19.9671C187.751 19.9671 187.952 19.9156 188.136 19.8125C188.32 19.7095 188.469 19.5675 188.584 19.3866C188.699 19.2058 188.756 18.9942 188.756 18.7514V16.1491C188.756 16.0531 188.785 15.9704 188.843 15.9019C188.9 15.8334 188.98 15.7988 189.081 15.7988Z" fill="#F08300"/>
<path d="M192.532 16.916C192.858 16.916 193.111 16.9834 193.291 17.1188C193.47 17.2536 193.595 17.4345 193.667 17.6614C193.738 17.8878 193.774 18.141 193.774 18.42V20.2605C193.774 20.3613 193.74 20.4446 193.674 20.511C193.607 20.5773 193.525 20.6107 193.428 20.6107C193.331 20.6107 193.243 20.5773 193.177 20.511C193.11 20.4446 193.076 20.3613 193.076 20.2605V18.4271C193.076 18.2621 193.053 18.1147 193.008 17.9842C192.961 17.8538 192.883 17.7497 192.773 17.6718C192.663 17.594 192.506 17.5551 192.304 17.5551C192.115 17.5551 191.949 17.594 191.807 17.6718C191.664 17.7497 191.552 17.8538 191.472 17.9842C191.391 18.1147 191.351 18.2621 191.351 18.4271V20.2605C191.351 20.3613 191.318 20.4446 191.251 20.511C191.184 20.5773 191.103 20.6107 191.006 20.6107C190.909 20.6107 190.821 20.5773 190.754 20.511C190.687 20.4446 190.654 20.3613 190.654 20.2605V17.349C190.654 17.2482 190.687 17.1649 190.754 17.0985C190.821 17.0322 190.904 16.9988 191.006 16.9988C191.107 16.9988 191.184 17.0322 191.251 17.0985C191.318 17.1649 191.351 17.2487 191.351 17.349V17.7338L191.227 17.8023C191.259 17.7014 191.315 17.5995 191.396 17.4964C191.476 17.3934 191.574 17.2975 191.689 17.2081C191.804 17.1188 191.933 17.0481 192.076 16.9955C192.218 16.9429 192.37 16.9166 192.531 16.9166L192.532 16.916Z" fill="#F08300"/>
<path d="M195.236 16.5182C195.103 16.5182 195.006 16.4941 194.947 16.4458C194.887 16.3976 194.857 16.3165 194.857 16.2019V16.0923C194.857 15.9778 194.889 15.8978 194.953 15.8517C195.018 15.8062 195.114 15.7832 195.243 15.7832C195.381 15.7832 195.48 15.8073 195.54 15.8556C195.599 15.9038 195.63 15.9827 195.63 16.0923V16.2019C195.63 16.3209 195.599 16.4036 195.537 16.4491C195.474 16.4952 195.375 16.5176 195.236 16.5176V16.5182ZM195.588 20.2606C195.588 20.3614 195.556 20.4447 195.492 20.5111C195.428 20.5774 195.345 20.6108 195.244 20.6108C195.142 20.6108 195.06 20.5774 194.995 20.5111C194.931 20.4447 194.899 20.3614 194.899 20.2606V17.3217C194.899 17.2209 194.932 17.1375 194.999 17.0712C195.066 17.0049 195.147 16.9715 195.244 16.9715C195.341 16.9715 195.428 17.0049 195.493 17.0712C195.557 17.1375 195.589 17.2214 195.589 17.3217V20.2606H195.588Z" fill="#F08300"/>
<path d="M196.81 16.9629C196.879 16.9629 196.944 16.981 197.006 17.0177C197.069 17.0544 197.113 17.1092 197.141 17.1827L198.224 19.6754L198.093 19.7373L199.19 17.1898C199.255 17.0385 199.358 16.9656 199.501 16.97C199.593 16.97 199.67 16.9996 199.733 17.0594C199.795 17.1191 199.826 17.192 199.826 17.2791C199.826 17.3065 199.821 17.3367 199.812 17.3685C199.802 17.4008 199.791 17.4282 199.777 17.4507L198.466 20.3896C198.406 20.5271 198.307 20.6 198.169 20.6094C198.1 20.6187 198.031 20.6039 197.962 20.565C197.893 20.526 197.843 20.4679 197.81 20.3901L196.506 17.4578C196.496 17.4348 196.487 17.4085 196.478 17.3789C196.469 17.3493 196.464 17.3137 196.464 17.2726C196.464 17.2041 196.495 17.135 196.557 17.0665C196.62 16.998 196.703 16.9634 196.809 16.9634L196.81 16.9629Z" fill="#F08300"/>
<path d="M202.392 20.6787C202.011 20.6787 201.679 20.5997 201.399 20.4419C201.118 20.284 200.901 20.0665 200.746 19.7897C200.592 19.5129 200.515 19.1955 200.515 18.8387C200.515 18.4359 200.597 18.0917 200.76 17.8056C200.923 17.5195 201.136 17.2997 201.399 17.1462C201.661 16.9927 201.939 16.916 202.234 16.916C202.459 16.916 202.673 16.9604 202.876 17.0498C203.078 17.1391 203.258 17.2624 203.417 17.4208C203.576 17.5792 203.701 17.7639 203.793 17.9771C203.885 18.1898 203.934 18.4222 203.938 18.6743C203.934 18.7658 203.897 18.8415 203.828 18.9007C203.759 18.9604 203.679 18.99 203.587 18.99H200.902L200.736 18.4063H203.331L203.2 18.5301V18.3586C203.186 18.1986 203.131 18.0588 203.034 17.9399C202.938 17.8209 202.819 17.7272 202.679 17.6581C202.538 17.5896 202.39 17.5551 202.234 17.5551C202.096 17.5551 201.963 17.577 201.837 17.6203C201.71 17.6636 201.598 17.7338 201.499 17.8297C201.4 17.9256 201.322 18.0528 201.264 18.2106C201.206 18.3685 201.178 18.5641 201.178 18.7976C201.178 19.0492 201.231 19.269 201.336 19.457C201.442 19.645 201.585 19.7902 201.764 19.8933C201.944 19.9963 202.142 20.0478 202.358 20.0478C202.528 20.0478 202.667 20.0308 202.775 19.9963C202.883 19.9618 202.975 19.9196 203.051 19.8691C203.127 19.8187 203.193 19.7705 203.248 19.725C203.317 19.6839 203.383 19.6631 203.448 19.6631C203.535 19.6631 203.606 19.6916 203.662 19.7491C203.717 19.8067 203.744 19.8741 203.744 19.9519C203.744 20.0528 203.694 20.1443 203.592 20.2265C203.468 20.3454 203.296 20.4507 203.078 20.5422C202.86 20.6337 202.631 20.6798 202.391 20.6798L202.392 20.6787Z" fill="#F08300"/>
<path d="M205.271 20.6102C205.17 20.6102 205.086 20.5767 205.02 20.5104C204.953 20.4441 204.919 20.3608 204.919 20.2599V17.3485C204.919 17.2476 204.953 17.1643 205.02 17.098C205.086 17.0317 205.17 16.9982 205.271 16.9982C205.373 16.9982 205.45 17.0317 205.517 17.098C205.583 17.1643 205.617 17.2482 205.617 17.3485V18.1174L205.548 17.822C205.585 17.6938 205.641 17.5748 205.717 17.4652C205.793 17.3556 205.884 17.2591 205.99 17.1769C206.095 17.0947 206.214 17.0306 206.345 16.9845C206.476 16.939 206.613 16.916 206.755 16.916C206.875 16.916 206.978 16.9484 207.066 17.0119C207.154 17.0761 207.197 17.1561 207.197 17.252C207.197 17.3759 207.165 17.4663 207.101 17.5233C207.036 17.5809 206.965 17.6094 206.887 17.6094C206.818 17.6094 206.752 17.5946 206.687 17.565C206.623 17.5354 206.547 17.5206 206.46 17.5206C206.363 17.5206 206.264 17.5458 206.163 17.5962C206.061 17.6466 205.969 17.7212 205.887 17.8193C205.804 17.9179 205.739 18.0336 205.69 18.1662C205.642 18.2989 205.617 18.4479 205.617 18.6124V20.2605C205.617 20.3613 205.584 20.4446 205.517 20.511C205.45 20.5773 205.369 20.6107 205.272 20.6107L205.271 20.6102Z" fill="#F08300"/>
<path d="M207.804 20.0473C207.763 19.9831 207.744 19.9086 207.749 19.8242C207.754 19.7398 207.802 19.6674 207.894 19.6077C207.959 19.5666 208.026 19.5496 208.098 19.5562C208.169 19.5633 208.237 19.5984 208.302 19.6625C208.431 19.8045 208.574 19.9168 208.733 19.999C208.892 20.0813 209.084 20.1229 209.309 20.1229C209.401 20.1185 209.495 20.1037 209.592 20.0785C209.689 20.0533 209.772 20.0078 209.841 19.9409C209.91 19.8746 209.944 19.7771 209.944 19.6494C209.944 19.5348 209.908 19.4444 209.834 19.378C209.76 19.3117 209.664 19.2558 209.545 19.2098C209.425 19.1643 209.294 19.1226 209.151 19.0859C209.004 19.0448 208.857 18.9988 208.709 18.9483C208.562 18.8979 208.427 18.8327 208.306 18.7527C208.184 18.6727 208.086 18.5685 208.013 18.4403C207.939 18.312 207.902 18.1542 207.902 17.9667C207.902 17.7519 207.962 17.5661 208.082 17.4104C208.202 17.2547 208.36 17.1336 208.558 17.0465C208.756 16.9593 208.967 16.916 209.193 16.916C209.331 16.916 209.473 16.933 209.621 16.9675C209.768 17.0021 209.911 17.0558 210.049 17.1287C210.187 17.2021 210.307 17.298 210.408 17.417C210.453 17.4767 210.48 17.5474 210.487 17.6296C210.494 17.7118 210.456 17.7875 210.373 17.856C210.318 17.902 210.251 17.9212 210.173 17.9141C210.095 17.907 210.03 17.8807 209.98 17.8352C209.892 17.7255 209.78 17.6406 209.641 17.5809C209.503 17.5217 209.347 17.4915 209.172 17.4915C209.085 17.4915 208.994 17.503 208.899 17.526C208.805 17.5491 208.726 17.5924 208.662 17.6565C208.597 17.7206 208.565 17.8143 208.565 17.9382C208.565 18.0528 208.603 18.1443 208.679 18.2128C208.755 18.2813 208.855 18.3389 208.979 18.3844C209.104 18.4304 209.239 18.4715 209.386 18.5082C209.529 18.5449 209.671 18.5882 209.811 18.6387C209.952 18.6891 210.078 18.7543 210.191 18.8343C210.304 18.9144 210.396 19.0174 210.467 19.1435C210.538 19.2695 210.574 19.4285 210.574 19.6209C210.574 19.845 210.508 20.0363 210.377 20.1942C210.246 20.352 210.08 20.472 209.88 20.5548C209.68 20.637 209.47 20.6787 209.249 20.6787C208.987 20.6787 208.725 20.6315 208.465 20.5378C208.205 20.4441 207.986 20.2802 207.807 20.0467L207.804 20.0473Z" fill="#F08300"/>
<path d="M211.82 16.5182C211.687 16.5182 211.59 16.4941 211.53 16.4458C211.47 16.3976 211.44 16.3165 211.44 16.2019V16.0923C211.44 15.9778 211.472 15.8978 211.537 15.8517C211.601 15.8062 211.698 15.7832 211.827 15.7832C211.965 15.7832 212.063 15.8073 212.123 15.8556C212.183 15.9038 212.213 15.9827 212.213 16.0923V16.2019C212.213 16.3209 212.182 16.4036 212.12 16.4491C212.058 16.4952 211.958 16.5176 211.82 16.5176V16.5182ZM212.172 20.2606C212.172 20.3614 212.139 20.4447 212.076 20.5111C212.011 20.5774 211.928 20.6108 211.827 20.6108C211.726 20.6108 211.643 20.5774 211.579 20.5111C211.514 20.4447 211.482 20.3614 211.482 20.2606V17.3217C211.482 17.2209 211.515 17.1375 211.583 17.0712C211.649 17.0049 211.731 16.9715 211.828 16.9715C211.925 16.9715 212.012 17.0049 212.076 17.0712C212.141 17.1375 212.173 17.2214 212.173 17.3217V20.2606H212.172Z" fill="#F08300"/>
<path d="M213.263 17.0393H214.885C214.977 17.0393 215.054 17.07 215.116 17.132C215.179 17.1939 215.21 17.2706 215.21 17.3622C215.21 17.4537 215.179 17.5293 215.116 17.5885C215.054 17.6483 214.977 17.6779 214.885 17.6779H213.263C213.171 17.6779 213.094 17.6472 213.032 17.5852C212.97 17.5233 212.939 17.4466 212.939 17.355C212.939 17.2635 212.97 17.1879 213.032 17.1287C213.094 17.0695 213.171 17.0393 213.263 17.0393ZM213.988 16.1465C214.089 16.1465 214.172 16.1799 214.236 16.2462C214.301 16.3126 214.333 16.3964 214.333 16.4967V19.6828C214.333 19.765 214.346 19.8313 214.374 19.8817C214.401 19.9322 214.439 19.9667 214.488 19.9848C214.536 20.0029 214.585 20.0122 214.636 20.0122C214.687 20.0122 214.731 20.0029 214.771 19.9848C214.81 19.9667 214.857 19.9574 214.912 19.9574C214.967 19.9574 215.018 19.9826 215.064 20.033C215.11 20.0834 215.133 20.1519 215.133 20.2391C215.133 20.3487 215.073 20.438 214.953 20.5071C214.834 20.5756 214.705 20.6101 214.567 20.6101C214.488 20.6101 214.397 20.603 214.291 20.5893C214.185 20.5756 214.083 20.5411 213.983 20.4863C213.884 20.4315 213.802 20.3432 213.735 20.2221C213.668 20.101 213.635 19.9305 213.635 19.7107V16.4973C213.635 16.3964 213.669 16.3131 213.738 16.2468C213.807 16.1805 213.89 16.147 213.987 16.147L213.988 16.1465Z" fill="#F08300"/>
<path d="M218.88 16.9707C218.982 16.9707 219.064 17.0041 219.129 17.0705C219.193 17.1368 219.225 17.2206 219.225 17.3209V20.2735C219.225 20.6764 219.148 21.0036 218.994 21.2557C218.84 21.5073 218.633 21.692 218.373 21.8087C218.113 21.9255 217.82 21.9836 217.493 21.9836C217.327 21.9836 217.162 21.9688 216.996 21.9392C216.83 21.9096 216.695 21.8696 216.589 21.8191C216.479 21.7687 216.4 21.7057 216.354 21.63C216.308 21.5544 216.301 21.4733 216.333 21.3861C216.365 21.2765 216.421 21.202 216.499 21.1631C216.577 21.1241 216.658 21.1209 216.74 21.1526C216.819 21.1844 216.922 21.2261 217.051 21.2765C217.18 21.3269 217.327 21.3522 217.493 21.3522C217.718 21.3522 217.908 21.3154 218.062 21.2425C218.217 21.1691 218.335 21.0545 218.418 20.8994C218.5 20.7438 218.542 20.5426 218.542 20.2949V19.8213L218.652 19.9929C218.579 20.1392 218.481 20.2631 218.359 20.3639C218.238 20.4648 218.096 20.5426 217.935 20.5974C217.774 20.6522 217.595 20.6796 217.397 20.6796C217.144 20.6796 216.927 20.6237 216.745 20.5114C216.563 20.399 216.423 20.2434 216.324 20.0444C216.225 19.8455 216.176 19.6174 216.176 19.3609V17.3215C216.176 17.2206 216.209 17.1373 216.276 17.071C216.343 17.0047 216.426 16.9713 216.528 16.9713C216.629 16.9713 216.706 17.0047 216.773 17.071C216.84 17.1373 216.873 17.2212 216.873 17.3215V19.1757C216.873 19.4777 216.94 19.6986 217.073 19.8383C217.206 19.9781 217.404 20.0477 217.666 20.0477C217.841 20.0477 217.993 20.011 218.122 19.9381C218.251 19.8646 218.352 19.7632 218.425 19.6322C218.499 19.5018 218.536 19.3494 218.536 19.1757V17.3215C218.536 17.2206 218.568 17.1373 218.632 17.071C218.696 17.0047 218.779 16.9713 218.88 16.9713V16.9707Z" fill="#F08300"/>
<path d="M143.95 25.2533L142.259 29.2861C142.229 29.3661 142.184 29.4283 142.123 29.473C142.063 29.5178 141.995 29.5405 141.92 29.5405C141.805 29.5405 141.72 29.5095 141.664 29.4468C141.609 29.3847 141.582 29.3058 141.582 29.2109C141.582 29.1762 141.589 29.1362 141.604 29.0914L143.514 24.4973C143.544 24.4125 143.593 24.3474 143.661 24.3026C143.728 24.2578 143.802 24.2381 143.883 24.2429C143.963 24.2429 144.036 24.2656 144.101 24.3104C144.165 24.3552 144.213 24.4179 144.243 24.4973L146.131 29.024C146.151 29.0741 146.161 29.1237 146.161 29.1739C146.161 29.2837 146.124 29.3721 146.052 29.4396C145.979 29.5071 145.897 29.5405 145.807 29.5405C145.732 29.5405 145.663 29.5166 145.6 29.4695C145.537 29.4223 145.491 29.3608 145.461 29.2861L143.754 25.2683L143.95 25.2533H143.95ZM142.559 28.2237L142.898 27.5053H145.026L145.154 28.2237H142.56H142.559Z" fill="#F08300"/>
<path d="M149.07 25.4844C149.426 25.4844 149.702 25.5578 149.898 25.7053C150.093 25.8522 150.229 26.0493 150.307 26.2965C150.385 26.5432 150.424 26.8191 150.424 27.1231V29.1284C150.424 29.2383 150.387 29.3291 150.315 29.4013C150.242 29.4736 150.153 29.51 150.048 29.51C149.942 29.51 149.846 29.4736 149.773 29.4013C149.701 29.3291 149.664 29.2383 149.664 29.1284V27.1308C149.664 26.9511 149.639 26.7904 149.589 26.6483C149.539 26.5062 149.453 26.3927 149.333 26.3079C149.213 26.2231 149.043 26.1807 148.822 26.1807C148.616 26.1807 148.436 26.2231 148.281 26.3079C148.125 26.3927 148.003 26.5062 147.916 26.6483C147.828 26.7904 147.784 26.9511 147.784 27.1308V29.1284C147.784 29.2383 147.748 29.3291 147.675 29.4013C147.602 29.4736 147.514 29.51 147.408 29.51C147.302 29.51 147.206 29.4736 147.134 29.4013C147.061 29.3291 147.024 29.2383 147.024 29.1284V25.9562C147.024 25.8463 147.061 25.7555 147.134 25.6832C147.206 25.611 147.297 25.5746 147.408 25.5746C147.518 25.5746 147.602 25.611 147.675 25.6832C147.748 25.7555 147.784 25.8469 147.784 25.9562V26.3754L147.649 26.45C147.683 26.3401 147.745 26.2291 147.833 26.1168C147.92 26.0045 148.027 25.9 148.152 25.8027C148.278 25.7053 148.418 25.6283 148.574 25.571C148.729 25.5136 148.894 25.485 149.07 25.485L149.07 25.4844Z" fill="#F08300"/>
<path d="M152.019 25.0508C151.874 25.0508 151.769 25.0245 151.704 24.972C151.638 24.9194 151.606 24.8311 151.606 24.7062V24.5868C151.606 24.462 151.641 24.3748 151.711 24.3246C151.781 24.2751 151.886 24.25 152.027 24.25C152.177 24.25 152.285 24.2763 152.35 24.3288C152.415 24.3814 152.448 24.4674 152.448 24.5868V24.7062C152.448 24.8358 152.414 24.926 152.347 24.9756C152.279 25.0257 152.17 25.0502 152.019 25.0502V25.0508ZM152.403 29.1284C152.403 29.2383 152.368 29.3291 152.298 29.4013C152.228 29.4736 152.138 29.51 152.027 29.51C151.917 29.51 151.827 29.4736 151.757 29.4013C151.686 29.3291 151.652 29.2383 151.652 29.1284V25.9263C151.652 25.8164 151.688 25.7256 151.761 25.6534C151.833 25.5811 151.922 25.5447 152.028 25.5447C152.134 25.5447 152.228 25.5811 152.299 25.6534C152.369 25.7256 152.404 25.817 152.404 25.9263V29.1284H152.403Z" fill="#F08300"/>
<path d="M155.63 25.5078C156 25.5078 156.286 25.5986 156.487 25.7807C156.687 25.9629 156.82 26.2083 156.885 26.5177L156.765 26.48L156.818 26.3606C156.883 26.231 156.982 26.1002 157.115 25.9676C157.248 25.8357 157.407 25.7258 157.593 25.6386C157.778 25.5514 157.976 25.5078 158.187 25.5078C158.533 25.5078 158.801 25.5813 158.992 25.7288C159.182 25.8757 159.315 26.0727 159.39 26.32C159.465 26.5672 159.503 26.8425 159.503 27.1465V29.1292C159.503 29.239 159.468 29.3298 159.398 29.4021C159.328 29.4743 159.238 29.5108 159.127 29.5108C159.017 29.5108 158.927 29.4743 158.857 29.4021C158.786 29.3298 158.752 29.239 158.752 29.1292V27.1537C158.752 26.9793 158.728 26.8198 158.68 26.6747C158.633 26.5302 158.55 26.4143 158.432 26.3266C158.315 26.2394 158.153 26.1958 157.947 26.1958C157.742 26.1958 157.572 26.2394 157.421 26.3266C157.27 26.4137 157.153 26.5296 157.068 26.6747C156.982 26.8192 156.94 26.9793 156.94 27.1537V29.1292C156.94 29.239 156.904 29.3298 156.835 29.4021C156.764 29.4743 156.674 29.5108 156.564 29.5108C156.454 29.5108 156.364 29.4743 156.293 29.4021C156.223 29.3298 156.188 29.239 156.188 29.1292V27.1465C156.188 26.9721 156.164 26.8133 156.117 26.6711C156.069 26.529 155.988 26.4143 155.873 26.3272C155.757 26.24 155.597 26.1964 155.391 26.1964C155.185 26.1964 155.023 26.24 154.873 26.3272C154.722 26.4143 154.606 26.529 154.523 26.6711C154.44 26.8133 154.399 26.9715 154.399 27.1465V29.1292C154.399 29.239 154.362 29.3298 154.289 29.4021C154.217 29.4743 154.128 29.5108 154.022 29.5108C153.917 29.5108 153.821 29.4743 153.748 29.4021C153.675 29.3298 153.639 29.239 153.639 29.1292V25.9569C153.639 25.847 153.675 25.7562 153.748 25.684C153.821 25.6117 153.912 25.5753 154.022 25.5753C154.133 25.5753 154.217 25.6117 154.289 25.684C154.362 25.7562 154.399 25.8476 154.399 25.9569V26.3982L154.256 26.4806C154.29 26.3707 154.348 26.2585 154.429 26.1438C154.509 26.0292 154.61 25.9246 154.733 25.8297C154.856 25.7347 154.992 25.6577 155.143 25.598C155.293 25.5383 155.456 25.5084 155.631 25.5084L155.63 25.5078Z" fill="#F08300"/>
<path d="M164.021 25.5142C164.131 25.5142 164.221 25.5507 164.291 25.6229C164.362 25.6952 164.396 25.7866 164.396 25.8958V29.1278C164.396 29.2377 164.361 29.3285 164.291 29.4007C164.221 29.473 164.131 29.5094 164.021 29.5094C163.91 29.5094 163.82 29.473 163.75 29.4007C163.68 29.3285 163.645 29.2377 163.645 29.1278V28.5891L163.803 28.619C163.803 28.7038 163.766 28.8023 163.694 28.9146C163.621 29.0269 163.522 29.1332 163.396 29.2323C163.271 29.332 163.123 29.4157 162.953 29.4831C162.782 29.5506 162.599 29.5841 162.404 29.5841C162.058 29.5841 161.747 29.4957 161.471 29.3183C161.196 29.1415 160.977 28.8979 160.817 28.5885C160.657 28.2792 160.576 27.9275 160.576 27.5339C160.576 27.1404 160.657 26.7743 160.817 26.4679C160.977 26.161 161.194 25.9203 161.467 25.7459C161.741 25.5716 162.042 25.4844 162.374 25.4844C162.589 25.4844 162.788 25.5196 162.972 25.5889C163.155 25.6588 163.314 25.7483 163.449 25.8582C163.585 25.9681 163.69 26.0839 163.765 26.2064C163.84 26.3288 163.878 26.4446 163.878 26.5545L163.645 26.5772V25.8964C163.645 25.7919 163.68 25.7018 163.75 25.6271C163.82 25.5525 163.91 25.5148 164.021 25.5148V25.5142ZM162.487 28.8961C162.722 28.8961 162.93 28.8364 163.111 28.7163C163.291 28.5969 163.431 28.4333 163.532 28.2261C163.632 28.0188 163.683 27.7883 163.683 27.5339C163.683 27.2795 163.632 27.049 163.532 26.8418C163.432 26.6346 163.291 26.4727 163.111 26.3557C162.93 26.2386 162.722 26.1801 162.487 26.1801C162.251 26.1801 162.051 26.2386 161.874 26.3557C161.696 26.4727 161.556 26.634 161.452 26.8382C161.35 27.043 161.298 27.2747 161.298 27.5339C161.298 27.7931 161.35 28.0188 161.452 28.2261C161.555 28.4333 161.696 28.5963 161.874 28.7163C162.051 28.8358 162.256 28.8961 162.487 28.8961Z" fill="#F08300"/>
<path d="M166.487 29.1295C166.487 29.2394 166.45 29.3302 166.377 29.4024C166.305 29.4747 166.216 29.5111 166.11 29.5111C166.005 29.5111 165.916 29.4747 165.843 29.4024C165.771 29.3302 165.734 29.2394 165.734 29.1295V24.3562C165.734 24.2463 165.772 24.1556 165.847 24.0833C165.922 24.011 166.012 23.9746 166.117 23.9746C166.222 23.9746 166.317 24.011 166.384 24.0833C166.452 24.1556 166.486 24.2469 166.486 24.3562V29.1295H166.487Z" fill="#F08300"/>
<path d="M170.683 29.5088C170.563 29.5088 170.457 29.4724 170.367 29.4001C170.277 29.3279 170.231 29.2371 170.231 29.1272V24.6531C170.231 24.5432 170.267 24.4524 170.341 24.3802C170.413 24.3079 170.505 24.2715 170.615 24.2715H172.735C173.006 24.2715 173.254 24.3378 173.48 24.4697C173.705 24.6017 173.887 24.7839 174.025 25.0162C174.163 25.2479 174.232 25.5166 174.232 25.8206C174.232 26.02 174.191 26.2094 174.112 26.3891C174.031 26.5689 173.924 26.7283 173.788 26.8681C173.653 27.0078 173.5 27.1147 173.33 27.1899L173.247 27.04C173.402 27.0998 173.537 27.181 173.653 27.2831C173.768 27.3852 173.86 27.5052 173.927 27.642C173.995 27.7794 174.031 27.9328 174.037 28.1024C174.052 28.2571 174.065 28.3855 174.078 28.4876C174.091 28.5897 174.109 28.6733 174.134 28.7384C174.16 28.8035 174.205 28.8531 174.27 28.8883C174.36 28.9385 174.417 29.0131 174.439 29.1129C174.462 29.2126 174.441 29.3022 174.376 29.3822C174.331 29.4419 174.273 29.4807 174.203 29.4981C174.133 29.5154 174.062 29.5178 173.992 29.5058C173.922 29.4933 173.864 29.4748 173.819 29.4497C173.734 29.4001 173.651 29.3291 173.571 29.2365C173.491 29.1445 173.426 29.0155 173.376 28.8513C173.325 28.6865 173.301 28.4697 173.301 28.2004C173.301 28.0756 173.281 27.9699 173.241 27.8827C173.201 27.7955 173.145 27.722 173.075 27.6617C173.005 27.602 172.922 27.5596 172.827 27.5345C172.732 27.5094 172.627 27.4969 172.512 27.4969H170.917L171.023 27.3398V29.1278C171.023 29.2377 170.992 29.3285 170.932 29.4007C170.872 29.473 170.79 29.5094 170.685 29.5094L170.683 29.5088ZM170.923 26.8376H172.72C172.836 26.8328 172.946 26.788 173.051 26.7026C173.156 26.6178 173.244 26.4996 173.315 26.3473C173.385 26.195 173.42 26.0242 173.42 25.8349C173.42 25.5954 173.348 25.3948 173.205 25.2324C173.063 25.0705 172.893 24.9893 172.698 24.9893H170.938L171.021 24.8024V26.9947L170.923 26.8376H170.923Z" fill="#F08300"/>
<path d="M177.3 29.5841C176.884 29.5841 176.523 29.4981 176.217 29.3261C175.911 29.1541 175.675 28.917 175.506 28.6154C175.338 28.3138 175.254 27.9681 175.254 27.5793C175.254 27.1404 175.343 26.7653 175.521 26.4536C175.699 26.1419 175.931 25.9024 176.217 25.7352C176.503 25.568 176.806 25.4844 177.127 25.4844C177.372 25.4844 177.606 25.5327 177.826 25.6301C178.046 25.7274 178.243 25.8618 178.416 26.0344C178.589 26.2064 178.726 26.4082 178.826 26.6405C178.926 26.8722 178.979 27.1254 178.984 27.4001C178.979 27.4999 178.939 27.5823 178.864 27.6468C178.789 27.7119 178.701 27.7441 178.601 27.7441H175.676L175.495 27.1081H178.323L178.18 27.2431V27.0562C178.165 26.8818 178.105 26.7295 177.999 26.5999C177.894 26.4703 177.764 26.3682 177.612 26.293C177.459 26.2183 177.297 26.1807 177.127 26.1807C176.976 26.1807 176.832 26.2046 176.695 26.2518C176.557 26.2989 176.434 26.3754 176.326 26.4799C176.218 26.5844 176.133 26.7229 176.071 26.8949C176.008 27.0669 175.976 27.2801 175.976 27.5345C175.976 27.8086 176.034 28.0481 176.149 28.2529C176.265 28.4578 176.42 28.616 176.616 28.7283C176.811 28.8406 177.027 28.8967 177.262 28.8967C177.447 28.8967 177.599 28.8782 177.717 28.8406C177.835 28.8029 177.935 28.757 178.018 28.702C178.1 28.6471 178.172 28.5945 178.232 28.545C178.307 28.5002 178.38 28.4775 178.45 28.4775C178.545 28.4775 178.623 28.5085 178.683 28.5712C178.743 28.6339 178.773 28.7074 178.773 28.7922C178.773 28.9021 178.717 29.0018 178.607 29.0914C178.471 29.221 178.285 29.3356 178.047 29.4354C177.809 29.5351 177.56 29.5853 177.299 29.5853L177.3 29.5841Z" fill="#F08300"/>
<path d="M179.826 28.8961C179.781 28.8262 179.761 28.745 179.766 28.653C179.771 28.5611 179.824 28.4823 179.924 28.4172C179.995 28.3724 180.068 28.3539 180.146 28.361C180.224 28.3688 180.298 28.407 180.368 28.4769C180.509 28.6315 180.666 28.754 180.838 28.8435C181.011 28.9331 181.221 28.9785 181.466 28.9785C181.566 28.9737 181.669 28.9576 181.775 28.9301C181.88 28.9027 181.97 28.8531 182.045 28.7802C182.12 28.708 182.158 28.6017 182.158 28.4625C182.158 28.3377 182.118 28.2392 182.038 28.1669C181.958 28.0947 181.853 28.0338 181.722 27.9836C181.592 27.934 181.449 27.8886 181.294 27.8486C181.134 27.8038 180.973 27.7537 180.813 27.6987C180.652 27.6438 180.505 27.5727 180.373 27.4855C180.24 27.3984 180.133 27.2849 180.053 27.1452C179.973 27.0054 179.933 26.8334 179.933 26.6292C179.933 26.3951 179.998 26.1926 180.129 26.023C180.259 25.8534 180.432 25.7215 180.648 25.6265C180.863 25.5316 181.093 25.4844 181.34 25.4844C181.49 25.4844 181.645 25.5029 181.806 25.5405C181.966 25.5781 182.122 25.6367 182.272 25.7161C182.423 25.7961 182.553 25.9006 182.663 26.0302C182.713 26.0953 182.742 26.1723 182.749 26.2619C182.757 26.3515 182.716 26.4339 182.625 26.5085C182.565 26.5587 182.493 26.5796 182.407 26.5718C182.322 26.5641 182.252 26.5354 182.197 26.4859C182.101 26.3664 181.979 26.2739 181.828 26.2088C181.677 26.1443 181.507 26.1114 181.317 26.1114C181.221 26.1114 181.122 26.124 181.02 26.149C180.917 26.1741 180.831 26.2213 180.76 26.2912C180.69 26.361 180.655 26.4632 180.655 26.5981C180.655 26.7229 180.697 26.8227 180.78 26.8973C180.862 26.972 180.971 27.0347 181.107 27.0842C181.242 27.1344 181.39 27.1792 181.55 27.2192C181.706 27.2592 181.86 27.3064 182.013 27.3613C182.166 27.4163 182.303 27.4873 182.427 27.5745C182.55 27.6617 182.65 27.774 182.727 27.9113C182.805 28.0487 182.844 28.2219 182.844 28.4315C182.844 28.6757 182.772 28.8842 182.629 29.0561C182.487 29.2281 182.306 29.3589 182.088 29.4491C181.87 29.5387 181.641 29.5841 181.4 29.5841C181.114 29.5841 180.83 29.5327 180.547 29.4306C180.263 29.3285 180.024 29.1499 179.829 28.8955L179.826 28.8961Z" fill="#F08300"/>
<path d="M185.632 25.4844C185.903 25.4844 186.143 25.513 186.354 25.5704C186.565 25.6277 186.728 25.7077 186.847 25.8098C186.964 25.912 187.023 26.0308 187.023 26.1652C187.023 26.25 186.998 26.3288 186.948 26.4011C186.898 26.4733 186.823 26.5097 186.722 26.5097C186.647 26.5097 186.586 26.4984 186.538 26.4763C186.491 26.4536 186.448 26.4237 186.41 26.3867C186.373 26.3491 186.324 26.3157 186.264 26.2858C186.209 26.2512 186.126 26.2249 186.016 26.207C185.906 26.1897 185.81 26.1807 185.73 26.1807C185.464 26.1807 185.235 26.2404 185.043 26.3604C184.849 26.4799 184.699 26.6411 184.591 26.843C184.483 27.0448 184.43 27.2759 184.43 27.5351C184.43 27.7943 184.484 28.0266 184.591 28.2308C184.699 28.4357 184.847 28.5975 185.035 28.7169C185.223 28.8364 185.442 28.8967 185.693 28.8967C185.838 28.8967 185.96 28.8853 186.057 28.8633C186.155 28.8406 186.237 28.8119 186.302 28.7773C186.382 28.7325 186.448 28.6865 186.501 28.6387C186.554 28.5915 186.628 28.5676 186.723 28.5676C186.834 28.5676 186.918 28.6011 186.975 28.6686C187.033 28.7361 187.062 28.8197 187.062 28.9194C187.062 29.0293 186.995 29.135 186.862 29.2371C186.73 29.3392 186.553 29.4228 186.332 29.4879C186.111 29.5524 185.866 29.5853 185.595 29.5853C185.209 29.5853 184.872 29.4957 184.584 29.3159C184.296 29.1362 184.073 28.8919 183.915 28.5826C183.757 28.2732 183.678 27.9245 183.678 27.5351C183.678 27.1457 183.761 26.7904 183.926 26.4841C184.091 26.1771 184.321 25.9341 184.613 25.7549C184.907 25.5751 185.246 25.4856 185.633 25.4856L185.632 25.4844Z" fill="#F08300"/>
<path d="M190.955 25.5781C191.06 25.5781 191.149 25.6146 191.222 25.6868C191.294 25.7591 191.331 25.8504 191.331 25.9597V27.9275C191.331 28.4464 191.186 28.8513 190.895 29.1433C190.604 29.4354 190.193 29.5811 189.661 29.5811C189.13 29.5811 188.72 29.4354 188.432 29.1433C188.144 28.8513 188 28.4464 188 27.9275V25.9597C188 25.8498 188.037 25.7591 188.109 25.6868C188.182 25.6146 188.273 25.5781 188.384 25.5781C188.494 25.5781 188.578 25.6146 188.651 25.6868C188.723 25.7591 188.76 25.8504 188.76 25.9597V27.9275C188.76 28.2517 188.836 28.4936 188.989 28.653C189.142 28.8125 189.366 28.8925 189.662 28.8925C189.958 28.8925 190.189 28.8125 190.343 28.653C190.496 28.4936 190.572 28.2517 190.572 27.9275V25.9597C190.572 25.8498 190.608 25.7591 190.681 25.6868C190.754 25.6146 190.845 25.5781 190.955 25.5781H190.955Z" fill="#F08300"/>
<path d="M194.444 29.5841C194.028 29.5841 193.667 29.4981 193.361 29.3261C193.055 29.1541 192.819 28.917 192.651 28.6154C192.482 28.3138 192.398 27.9681 192.398 27.5793C192.398 27.1404 192.487 26.7653 192.666 26.4536C192.843 26.1419 193.075 25.9024 193.361 25.7352C193.647 25.568 193.95 25.4844 194.271 25.4844C194.516 25.4844 194.75 25.5327 194.97 25.6301C195.191 25.7274 195.387 25.8618 195.56 26.0344C195.733 26.207 195.87 26.4082 195.97 26.6405C196.07 26.8722 196.123 27.1254 196.128 27.4001C196.123 27.4999 196.083 27.5823 196.008 27.6468C195.933 27.7119 195.845 27.7441 195.745 27.7441H192.82L192.639 27.1081H195.467L195.324 27.2431V27.0562C195.309 26.8818 195.249 26.7295 195.143 26.5999C195.038 26.4703 194.908 26.3682 194.756 26.293C194.603 26.2183 194.441 26.1807 194.271 26.1807C194.12 26.1807 193.976 26.2046 193.839 26.2518C193.701 26.2989 193.578 26.3754 193.47 26.4799C193.362 26.5844 193.277 26.7229 193.215 26.8949C193.152 27.0669 193.12 27.2801 193.12 27.5345C193.12 27.8086 193.178 28.0481 193.293 28.2529C193.409 28.4578 193.564 28.616 193.76 28.7283C193.955 28.8406 194.171 28.8967 194.406 28.8967C194.592 28.8967 194.743 28.8782 194.861 28.8406C194.979 28.8029 195.079 28.757 195.162 28.702C195.245 28.6471 195.316 28.5945 195.376 28.545C195.451 28.5002 195.524 28.4775 195.594 28.4775C195.689 28.4775 195.767 28.5085 195.827 28.5712C195.887 28.6339 195.917 28.7074 195.917 28.7922C195.917 28.9021 195.862 29.0018 195.751 29.0914C195.615 29.221 195.429 29.3356 195.191 29.4354C194.953 29.5351 194.704 29.5853 194.443 29.5853L194.444 29.5841Z" fill="#F08300"/>
<path d="M199.885 24.8796C199.778 24.8796 199.686 24.8455 199.61 24.7768C199.534 24.7088 199.495 24.621 199.495 24.5147C199.495 24.4084 199.534 24.3146 199.61 24.2489C199.686 24.1832 199.778 24.1504 199.885 24.1504H203.351C203.462 24.1504 203.555 24.1844 203.629 24.2531C203.703 24.3212 203.74 24.409 203.74 24.5153C203.74 24.6216 203.703 24.7153 203.629 24.781C203.555 24.8467 203.462 24.8796 203.351 24.8796H199.885ZM201.618 29.4677C201.496 29.4677 201.397 29.4313 201.32 29.3579C201.244 29.2844 201.206 29.1918 201.206 29.0808V24.5302H202.03V29.0808C202.03 29.1924 201.991 29.2844 201.912 29.3579C201.833 29.4313 201.735 29.4677 201.618 29.4677Z" fill="#F08300"/>
<path d="M205.626 29.5438C205.204 29.5438 204.837 29.4567 204.527 29.2817C204.217 29.1067 203.976 28.8666 203.805 28.5603C203.635 28.2539 203.55 27.9034 203.55 27.508C203.55 27.0625 203.64 26.6815 203.821 26.3644C204.002 26.0479 204.237 25.8049 204.528 25.6353C204.817 25.4657 205.125 25.3809 205.451 25.3809C205.7 25.3809 205.937 25.4304 206.161 25.529C206.385 25.6275 206.585 25.7643 206.761 25.9392C206.937 26.1142 207.075 26.319 207.177 26.5543C207.278 26.7896 207.332 27.047 207.337 27.3253C207.332 27.4268 207.291 27.5104 207.215 27.5761C207.138 27.6418 207.049 27.6747 206.947 27.6747H203.978L203.795 27.0291H206.665L206.52 27.1658V26.9759C206.505 26.7986 206.444 26.6445 206.337 26.5125C206.23 26.3811 206.099 26.2772 205.944 26.2008C205.789 26.125 205.625 26.0867 205.452 26.0867C205.299 26.0867 205.153 26.1106 205.013 26.159C204.873 26.2074 204.748 26.2844 204.639 26.3907C204.53 26.497 204.443 26.6373 204.379 26.8123C204.316 26.9873 204.284 27.2035 204.284 27.4621C204.284 27.7403 204.342 27.984 204.46 28.1912C204.577 28.399 204.735 28.5597 204.933 28.6737C205.132 28.7878 205.35 28.8445 205.59 28.8445C205.778 28.8445 205.932 28.8254 206.052 28.7878C206.171 28.7496 206.273 28.703 206.357 28.6475C206.442 28.5919 206.514 28.5388 206.575 28.488C206.652 28.4426 206.725 28.4199 206.797 28.4199C206.893 28.4199 206.973 28.4516 207.033 28.5149C207.095 28.5782 207.125 28.6528 207.125 28.7388C207.125 28.8505 207.069 28.9514 206.957 29.0428C206.82 29.1748 206.63 29.2912 206.388 29.3922C206.146 29.4931 205.893 29.5438 205.628 29.5438H205.626Z" fill="#F08300"/>
<path d="M211.672 25.4113C211.784 25.4113 211.876 25.4483 211.947 25.5212C212.019 25.5947 212.054 25.6872 212.054 25.7983V29.0798C212.054 29.1915 212.019 29.2835 211.947 29.3569C211.876 29.4304 211.785 29.4668 211.672 29.4668C211.56 29.4668 211.469 29.4304 211.398 29.3569C211.326 29.2835 211.291 29.1909 211.291 29.0798V28.5328L211.451 28.5633C211.451 28.6493 211.414 28.7496 211.341 28.8636C211.267 28.9777 211.166 29.0852 211.039 29.1867C210.911 29.2882 210.761 29.3731 210.589 29.4411C210.416 29.5098 210.23 29.5438 210.031 29.5438C209.68 29.5438 209.364 29.4543 209.084 29.2739C208.805 29.0942 208.583 28.8475 208.42 28.5334C208.257 28.2193 208.176 27.8622 208.176 27.4621C208.176 27.0619 208.257 26.6911 208.42 26.3794C208.583 26.0682 208.803 25.8234 209.08 25.6466C209.358 25.4692 209.664 25.3809 210 25.3809C210.219 25.3809 210.422 25.4161 210.607 25.4872C210.793 25.5582 210.955 25.649 211.092 25.7607C211.23 25.8723 211.336 25.99 211.413 26.1136C211.489 26.2378 211.527 26.3555 211.527 26.4671L211.291 26.4898V25.7983C211.291 25.692 211.326 25.6006 211.398 25.5248C211.469 25.4489 211.56 25.4107 211.672 25.4107V25.4113ZM210.115 28.8451C210.354 28.8451 210.565 28.7842 210.749 28.663C210.932 28.5412 211.075 28.3757 211.176 28.1655C211.278 27.9553 211.329 27.7212 211.329 27.4627C211.329 27.2041 211.278 26.97 211.176 26.7598C211.074 26.5496 210.932 26.3853 210.749 26.2659C210.566 26.147 210.354 26.0873 210.115 26.0873C209.876 26.0873 209.673 26.147 209.493 26.2659C209.312 26.3847 209.169 26.5484 209.065 26.7562C208.961 26.964 208.909 27.1993 208.909 27.4627C208.909 27.726 208.961 27.9553 209.065 28.1655C209.17 28.3757 209.312 28.5418 209.493 28.663C209.673 28.7848 209.881 28.8451 210.115 28.8451Z" fill="#F08300"/>
<path d="M215.292 25.4055C215.669 25.4055 215.959 25.4981 216.163 25.6826C216.366 25.8677 216.501 26.1167 216.567 26.4309L216.445 26.3926L216.498 26.2708C216.564 26.1394 216.665 26.0063 216.8 25.8719C216.935 25.7375 217.096 25.6264 217.285 25.5375C217.473 25.4491 217.674 25.4043 217.888 25.4043C218.239 25.4043 218.512 25.4789 218.705 25.6282C218.898 25.7775 219.033 25.9776 219.109 26.2284C219.186 26.4792 219.224 26.7587 219.224 27.0681V29.0812C219.224 29.1928 219.189 29.2848 219.117 29.3583C219.046 29.4317 218.955 29.4682 218.842 29.4682C218.73 29.4682 218.639 29.4317 218.567 29.3583C218.496 29.2848 218.461 29.1923 218.461 29.0812V27.0758C218.461 26.8985 218.437 26.7366 218.388 26.5897C218.339 26.4428 218.255 26.3252 218.136 26.2368C218.017 26.1484 217.852 26.1036 217.643 26.1036C217.434 26.1036 217.262 26.1478 217.109 26.2368C216.957 26.3252 216.837 26.4434 216.75 26.5897C216.664 26.7366 216.62 26.8985 216.62 27.0758V29.0812C216.62 29.1928 216.585 29.2848 216.514 29.3583C216.442 29.4317 216.351 29.4682 216.239 29.4682C216.127 29.4682 216.035 29.4317 215.964 29.3583C215.892 29.2848 215.857 29.1923 215.857 29.0812V27.0681C215.857 26.8907 215.833 26.73 215.784 26.5855C215.736 26.441 215.654 26.3246 215.537 26.2362C215.42 26.1478 215.256 26.103 215.048 26.103C214.84 26.103 214.674 26.1472 214.521 26.2362C214.369 26.3246 214.25 26.441 214.166 26.5855C214.082 26.73 214.04 26.8907 214.04 27.0681V29.0812C214.04 29.1928 214.002 29.2848 213.929 29.3583C213.855 29.4317 213.765 29.4682 213.658 29.4682C213.551 29.4682 213.453 29.4317 213.379 29.3583C213.306 29.2848 213.269 29.1923 213.269 29.0812V25.86C213.269 25.7489 213.306 25.6563 213.379 25.5829C213.453 25.5094 213.546 25.473 213.658 25.473C213.77 25.473 213.855 25.51 213.929 25.5829C214.003 25.6563 214.04 25.7489 214.04 25.86V26.3078L213.894 26.3914C213.93 26.2804 213.989 26.1663 214.07 26.0499C214.152 25.9334 214.255 25.8271 214.379 25.731C214.504 25.6348 214.643 25.556 214.795 25.4957C214.948 25.4348 215.113 25.4043 215.292 25.4043L215.292 25.4055Z" fill="#F08300"/>
<path d="M76.8289 37.8089C78.5013 37.7901 79.319 38.5276 79.319 39.5302C79.319 39.965 79.1479 40.4568 78.8246 40.9676C78.0455 42.1593 77 43.3127 75.8023 44.2581C75.5365 44.4661 75.2511 44.5609 75.0042 44.5609C74.4341 44.5609 73.9776 44.0879 73.9776 43.5206C73.9776 43.199 74.1298 42.8585 74.5099 42.5563C75.289 41.9513 76.0302 41.1567 76.5056 40.4568C76.6003 40.3243 76.6388 40.2112 76.6388 40.1164C76.6388 39.965 76.5056 39.8896 76.2019 39.8896L65.4056 39.9656C64.7401 39.9656 64.3979 39.4548 64.3979 38.9253C64.3979 38.3957 64.7401 37.885 65.4056 37.885L76.8289 37.8096V37.8089ZM70.5184 42.2347C70.5184 41.6102 71.0696 41.2892 71.6207 41.2892C72.1719 41.2892 72.7231 41.6109 72.7231 42.2347V43.1236C72.7231 47.1516 70.9364 50.14 67.705 52.0881C67.4582 52.2395 67.2107 52.3149 66.9828 52.3149C66.3552 52.3149 65.8804 51.823 65.8804 51.2557C65.8804 50.8964 66.0894 50.5182 66.5837 50.2154C69.1875 48.6455 70.5184 46.433 70.5184 43.123V42.234V42.2347Z" fill="#F08300"/>
<path d="M94.0378 47.9824C94.7222 47.9824 95.0644 48.5119 95.0644 49.0604C95.0644 49.6088 94.7222 50.1384 94.0378 50.1384H80.1623C79.4779 50.1384 79.1357 49.5899 79.1357 49.0604C79.1357 48.5308 79.4779 47.9824 80.1623 47.9824H94.0378ZM91.9474 39.1504C92.6318 39.1504 92.974 39.68 92.974 40.2284C92.974 40.7768 92.6318 41.3064 91.9474 41.3064H82.2534C81.569 41.3064 81.2268 40.758 81.2268 40.2284C81.2268 39.6988 81.569 39.1504 82.2534 39.1504H91.9474Z" fill="#F08300"/>
<path d="M107.987 38.9984C109.64 38.9796 110.534 39.6794 110.534 40.7197C110.534 41.2493 110.306 41.8731 109.849 42.5352C108.519 44.4268 106.675 46.2234 104.717 47.6608C105.325 48.2657 105.896 48.8713 106.37 49.4197C106.636 49.7225 106.751 50.0442 106.751 50.3275C106.751 50.9896 106.18 51.5004 105.534 51.5004C105.192 51.5004 104.831 51.349 104.526 50.9708C103.139 49.3444 101.01 47.3014 99.565 46.2234C99.2418 45.9778 99.0896 45.675 99.0896 45.3911C99.0896 44.8238 99.6218 44.2942 100.268 44.2942C100.515 44.2942 100.782 44.3696 101.029 44.5398C101.656 44.9557 102.378 45.5424 103.12 46.1851C104.982 44.8803 106.579 43.3481 107.662 41.7977C107.795 41.6086 107.852 41.4761 107.852 41.363C107.852 41.1739 107.681 41.0985 107.282 41.0985L96.2958 41.2311C95.6493 41.2311 95.3267 40.7203 95.3267 40.1908C95.3267 39.6612 95.6499 39.1128 96.2769 39.1128L107.986 38.999L107.987 38.9984Z" fill="#F08300"/>
<path d="M114.493 38.6411C114.493 37.9978 115.063 37.6573 115.634 37.6573C116.204 37.6573 116.736 37.979 116.736 38.6411V40.7783C116.736 45.998 115.386 49.0995 112.763 51.3315C112.478 51.5771 112.193 51.672 111.908 51.672C111.3 51.672 110.787 51.1613 110.787 50.5751C110.787 50.2723 110.92 49.9507 111.242 49.6674C113.505 47.6439 114.493 45.3177 114.493 40.7029V38.6417L114.493 38.6411ZM121.583 48.5887C121.583 48.8727 121.659 49.0235 121.849 49.0235C121.944 49.0235 122.077 48.9669 122.229 48.8909C123.408 48.2476 124.852 47.0377 125.802 45.6946C126.068 45.3353 126.41 45.1839 126.734 45.1839C127.304 45.1839 127.855 45.6186 127.855 46.2053C127.855 46.4133 127.779 46.6401 127.627 46.8675C126.448 48.5699 124.795 50.0449 122.97 51.0092C122.381 51.312 121.83 51.4628 121.335 51.4628C120.176 51.4628 119.34 50.6493 119.34 49.2503V38.1674C119.34 37.5241 119.91 37.2031 120.461 37.2031C121.012 37.2031 121.582 37.5248 121.582 38.1674V48.5881L121.583 48.5887Z" fill="#F08300"/>
<path d="M135.235 48.2765C135.235 48.7753 135.361 48.9535 135.665 48.9535C135.773 48.9535 135.916 48.9357 136.077 48.8824C138.566 48.1161 141.842 45.961 143.722 43.7343C143.972 43.4313 144.277 43.3064 144.581 43.3064C145.154 43.3064 145.673 43.7698 145.673 44.3574C145.673 44.5887 145.584 44.8562 145.369 45.1053C143.166 47.7599 139.514 50.0577 136.381 51.0376C135.951 51.1802 135.539 51.2335 135.163 51.2335C133.91 51.2335 133.086 50.4316 133.086 48.8641V39.2441C133.086 38.6381 133.623 38.3535 134.16 38.3535C134.698 38.3535 135.235 38.6387 135.235 39.2441V48.2765H135.235Z" fill="#F08300"/>
<path d="M154.903 38.8159C156.3 38.7804 157.016 39.3858 157.016 40.348C157.016 40.6332 156.944 40.9539 156.819 41.3101C156.264 42.7889 155.405 44.2316 154.366 45.5678C156.032 46.6903 157.894 48.3288 159.165 49.7899C159.397 50.0573 159.505 50.342 159.505 50.5917C159.505 51.1793 158.95 51.6604 158.359 51.6604C158.072 51.6604 157.75 51.5355 157.499 51.2325C156.389 49.8964 154.742 48.2756 153.095 47.0459C151.358 48.9164 149.281 50.4662 147.258 51.4639C147.079 51.5527 146.9 51.5888 146.739 51.5888C146.13 51.5888 145.701 51.0722 145.701 50.5556C145.701 50.1994 145.88 49.8609 146.31 49.6473C150.034 47.7767 153.167 44.7482 154.582 41.2918C154.635 41.1847 154.653 41.0782 154.653 41.0066C154.653 40.8462 154.51 40.7752 154.205 40.7752L147.795 40.9001C147.205 40.9001 146.9 40.419 146.9 39.9379C146.9 39.4568 147.205 38.9402 147.777 38.9402L154.903 38.8153V38.8159Z" fill="#F08300"/>
<path d="M164.981 37.9433C164.856 37.2841 165.447 36.9102 166.02 36.9102C166.467 36.9102 166.915 37.1415 167.005 37.6581L167.524 40.5618L171.57 39.9381C172.251 39.831 172.644 40.3837 172.644 40.9181C172.644 41.3098 172.412 41.7021 171.91 41.7731L167.846 42.3968L168.294 44.9088L173.54 44.036C174.22 43.9289 174.614 44.4638 174.614 44.9981C174.614 45.3899 174.381 45.7822 173.88 45.871L168.616 46.7438L169.476 51.5541C169.601 52.2133 169.028 52.605 168.455 52.605C168.007 52.605 167.56 52.3737 167.47 51.8387L166.611 47.0823L161.365 47.9551C160.702 48.0622 160.309 47.5095 160.309 46.9752C160.309 46.5834 160.541 46.1911 161.042 46.1023L166.288 45.2295L165.841 42.6998L161.83 43.3235C161.167 43.4306 160.791 42.8779 160.791 42.3436C160.791 41.9341 161.006 41.5418 161.525 41.4707L165.5 40.8648L164.981 37.9433H164.981Z" fill="#F08300"/>
<path d="M185.362 50.5166C185.849 50.5166 186.086 50.8924 186.086 51.2841C186.086 51.6758 185.849 52.0516 185.362 52.0516H175.683C175.211 52.0516 174.959 51.6599 174.959 51.2841C174.959 50.9083 175.211 50.5166 175.683 50.5166H181.978L182.182 46.1791C182.198 45.7252 182.088 45.5838 181.553 45.5838H177.099C176.627 45.5838 176.376 45.1921 176.376 44.8163C176.376 44.4406 176.627 44.0488 177.099 44.0488H181.789C183.253 44.0488 183.851 44.6595 183.788 45.9903L183.584 50.516H185.362V50.5166Z" fill="#F08300"/>
<path d="M197.961 44.0488C198.506 44.0488 198.778 44.492 198.778 44.9512C198.778 45.4104 198.506 45.8537 197.961 45.8537H186.904C186.358 45.8537 186.086 45.3945 186.086 44.9512C186.086 44.508 186.358 44.0488 186.904 44.0488H197.961Z" fill="#F08300"/>
<path d="M207.754 42.6213C208.218 41.6104 208.663 40.3511 208.984 39.1983C209.056 38.9143 209.091 38.6481 209.091 38.4003C209.091 37.4249 208.486 36.8926 207.237 36.8926H205.829C204.527 36.8926 204.01 37.4072 204.01 38.6133V52.2705C204.01 52.7319 204.474 52.9797 204.955 52.9797C205.436 52.9797 205.882 52.7313 205.882 52.2705V48.5458C205.971 48.7942 206.167 48.9717 206.47 49.0249C206.666 49.0604 206.809 49.0782 207.005 49.0782C208.396 49.0782 209.233 48.369 209.233 46.3643C209.233 45.0518 208.752 43.8457 207.754 42.6219L207.754 42.6213ZM206.898 47.2859C206.809 47.2859 206.702 47.2859 206.613 47.2681C206.256 47.2326 206.007 47.4633 205.882 47.7828V39.0031C205.882 38.6836 205.971 38.5949 206.239 38.5949H206.899C207.131 38.5949 207.22 38.6481 207.22 38.7901C207.22 38.8433 207.202 38.9143 207.184 39.0031C206.935 40.0494 206.542 41.2378 206.186 42.0363C206.061 42.3202 205.99 42.5687 205.99 42.781C205.99 43.0649 206.097 43.3311 206.311 43.5967C206.953 44.4478 207.363 45.4765 207.363 46.3637C207.363 47.1084 207.256 47.2859 206.899 47.2859H206.898Z" fill="#F08300"/>
<path d="M214.083 41.3254C213.797 41.6981 213.512 42.0701 213.209 42.425C214.867 43.986 215.776 46.4691 215.776 48.5974C215.776 52.0204 214.85 52.748 213.441 52.748C213.085 52.748 212.711 52.7302 212.39 52.6592C211.872 52.5528 211.623 52.1624 211.623 51.7726C211.623 51.2935 211.998 50.8327 212.657 50.9569C212.96 51.0101 213.085 51.0279 213.317 51.0279C213.816 51.0279 214.083 50.9037 214.083 48.598C214.083 48.456 214.083 48.3141 214.065 48.1543C212.925 49.3249 211.463 50.46 210.001 51.2231C209.823 51.3118 209.662 51.3473 209.502 51.3473C209.056 51.3473 208.735 50.9924 208.735 50.5849C208.735 50.3009 208.896 49.9993 209.288 49.8047C210.804 49.0245 212.462 47.7474 213.727 46.3107C213.638 46.0445 213.549 45.7606 213.424 45.495C212.676 46.2752 211.837 46.9672 210.946 47.5522C210.768 47.6764 210.59 47.7297 210.429 47.7297C209.983 47.7297 209.663 47.357 209.663 46.9672C209.663 46.7188 209.805 46.4704 210.109 46.2758C211 45.7434 211.891 44.9987 212.711 44.1653C212.551 43.9169 212.39 43.6862 212.194 43.4738C211.677 43.9707 211.16 44.396 210.625 44.7509C210.465 44.8574 210.286 44.9106 210.126 44.9106C209.698 44.9106 209.342 44.538 209.342 44.1482C209.342 43.9175 209.467 43.669 209.752 43.4745C210.59 42.9066 211.428 42.1619 212.141 41.3285H210.055C209.609 41.3285 209.396 40.9381 209.396 40.5483C209.396 40.1585 209.61 39.7681 210.055 39.7681H214.494C214.993 38.9347 215.385 38.1362 215.742 37.2317C215.885 36.8413 216.206 36.6816 216.544 36.6816C217.008 36.6816 217.488 37.0188 217.488 37.4973C217.488 37.6038 217.471 37.7103 217.417 37.8167C217.114 38.5437 216.793 39.1825 216.419 39.7675H219.022C219.467 39.7675 219.681 40.1579 219.681 40.5477C219.681 40.9375 219.467 41.3279 219.022 41.3279H216.472C216.562 42.0371 216.704 42.7469 216.883 43.4561C217.275 43.1012 217.613 42.7292 218.023 42.2678C218.22 42.0548 218.452 41.9661 218.665 41.9661C219.093 41.9661 219.485 42.321 219.485 42.764C219.485 42.9592 219.413 43.1544 219.235 43.3674C218.664 43.9701 218.041 44.5025 217.363 45.0171C217.934 46.5426 218.718 47.9439 219.734 49.0967C219.93 49.3096 220.001 49.5403 220.001 49.7533C220.001 50.2324 219.591 50.6222 219.11 50.6222C218.843 50.6222 218.557 50.498 218.308 50.1963C216.579 48.0326 215.242 44.396 214.886 41.3279H214.084L214.083 41.3254Z" fill="#F08300"/>
<path d="M212.01 39.3262C212.784 39.3262 213.412 38.7018 213.412 37.9317C213.412 37.1615 212.784 36.5371 212.01 36.5371C211.236 36.5371 210.608 37.1615 210.608 37.9317C210.608 38.7018 211.236 39.3262 212.01 39.3262Z" fill="#F08300"/>
<path fill-rule="evenodd" clip-rule="evenodd" d="M121.751 14.3165C122.787 14.7133 123.135 16.3101 122.527 17.8831C121.919 19.4561 120.586 20.4105 119.549 20.0136C118.513 19.6167 118.165 18.0199 118.774 16.4469C119.382 14.8739 120.715 13.9196 121.751 14.3165Z" fill="#F08300"/>
<path d="M127.23 19.6814C127.838 18.1083 127.49 16.5116 126.453 16.115C125.417 15.7184 124.083 16.6722 123.476 18.2453C122.868 19.8185 123.215 21.4152 124.252 21.8118C125.289 22.2084 126.622 21.2546 127.23 19.6814Z" fill="#F08300"/>
<path fill-rule="evenodd" clip-rule="evenodd" d="M115.557 16.6056C116.585 16.4637 117.595 17.6118 117.812 19.1723C118.031 20.7318 117.375 22.1121 116.347 22.2551C115.319 22.397 114.309 21.2489 114.091 19.6884C113.873 18.1289 114.529 16.7486 115.557 16.6056Z" fill="#F08300"/>
<path fill-rule="evenodd" clip-rule="evenodd" d="M129.738 22.032C129.071 21.2414 127.547 21.4207 126.335 22.4341C125.123 23.4465 124.68 24.9086 125.348 25.6992C126.015 26.4899 127.539 26.3106 128.751 25.2972C129.963 24.2848 130.405 22.8227 129.738 22.032Z" fill="#F08300"/>
<path fill-rule="evenodd" clip-rule="evenodd" d="M119.557 22.1976C117.667 23.3737 116.363 24.2732 115.643 24.897C114.586 26.0378 115.127 27.7621 117.327 27.6098C119.063 27.3528 120.356 27.8471 121.209 29.0947C122.697 30.6666 124.268 30.2065 124.366 28.5092C124.296 26.6305 123.876 24.9332 123.106 23.4162C122.332 21.9012 121.121 21.464 119.556 22.1966L119.557 22.1976Z" fill="#F08300"/>
<path d="M66.6925 22.6634C66.6925 23.3105 66.1185 23.6529 65.5452 23.6529C64.9719 23.6529 64.3979 23.3105 64.3979 22.6634V15.1849C64.3979 14.5186 64.9719 14.1762 65.5452 14.1762C66.1185 14.1762 66.6925 14.5186 66.6925 15.1849V22.6634ZM71.7413 14.861C71.7413 14.2138 72.3153 13.8906 72.9078 13.8906C73.4625 13.8906 74.0365 14.2138 74.0365 14.861V20.5125C74.0365 25.3272 71.9712 28.2382 68.2802 29.9892C68.0696 30.0844 67.8783 30.1412 67.7062 30.1412C67.0559 30.1412 66.5776 29.5893 66.5776 29.0182C66.5776 28.6566 66.7882 28.2759 67.285 28.0287C70.4791 26.468 71.7413 24.1658 71.7413 20.3598V14.8603V14.861Z" fill="#F08300"/>
<path d="M80.1296 18.3064C80.6651 17.7928 81.2198 17.5449 81.7937 17.5449C82.3099 17.5449 82.8268 17.7353 83.3429 18.1345L91.7964 24.6619C92.1983 24.9858 92.3704 25.3467 92.3704 25.7082C92.3704 26.3362 91.8542 26.8689 91.1846 26.8689C90.8976 26.8689 90.5727 26.7546 90.2472 26.5074L82.4634 20.1896C82.2149 19.98 82.0043 19.8848 81.813 19.8848C81.6024 19.8848 81.4111 19.9992 81.1819 20.2464L77.7202 23.7093C77.4332 23.9949 77.1083 24.1277 76.8021 24.1277C76.2095 24.1277 75.7119 23.671 75.7119 23.0999C75.7119 22.8335 75.8268 22.5288 76.0946 22.2247L80.1296 18.305V18.3064Z" fill="#F08300"/>
<path d="M102.972 19.6767C103.412 20.9134 103.986 22.0741 104.732 23.178C105.65 24.5483 106.797 25.7466 108.117 26.7553C108.653 27.1737 109.227 27.5168 109.819 27.8777C110.278 28.1441 110.47 28.5248 110.47 28.8864C110.47 29.4575 109.991 30.0094 109.36 30.0094C109.15 30.0094 108.94 29.9526 108.729 29.8382C105.822 28.1639 103.298 25.2714 101.94 21.8646C101.481 23.3109 100.888 24.4339 100.142 25.4611C98.8606 27.2497 96.8909 28.9815 94.8827 29.9711C94.6535 30.0854 94.4429 30.1231 94.2708 30.1231C93.6397 30.1231 93.2192 29.6095 93.2192 29.0576C93.2192 28.696 93.4106 28.3153 93.8503 28.0872C95.6673 27.1737 97.3121 25.8226 98.4215 24.262C99.3203 23.0061 99.9322 21.7502 100.277 19.676H94.5585C93.9845 19.676 93.6976 19.1816 93.6976 18.6673C93.6976 18.1531 93.9845 17.6778 94.5585 17.6778H100.506C100.602 16.574 100.64 15.2804 100.64 13.7198C100.64 13.0918 101.195 12.7871 101.731 12.7871C102.266 12.7871 102.821 13.0918 102.821 13.7198C102.821 15.2229 102.764 16.5363 102.668 17.6778H109.189C109.763 17.6778 110.05 18.1722 110.05 18.6673C110.05 19.1624 109.763 19.676 109.189 19.676H102.974L102.972 19.6767Z" fill="#F08300"/>
<path d="M88.1564 19.2681C88.7973 19.2681 89.3168 18.7512 89.3168 18.1135C89.3168 17.4759 88.7973 16.959 88.1564 16.959C87.5156 16.959 86.9961 17.4759 86.9961 18.1135C86.9961 18.7512 87.5156 19.2681 88.1564 19.2681Z" fill="#F08300"/>
<path d="M90.8952 17.6681C91.8276 17.6681 92.5835 16.9161 92.5835 15.9884C92.5835 15.0607 91.8276 14.3086 90.8952 14.3086C89.9629 14.3086 89.207 15.0607 89.207 15.9884C89.207 16.9161 89.9629 17.6681 90.8952 17.6681Z" fill="#F08300"/>
</svg>
