<svg width="19" height="17" viewBox="0 0 19 17" fill="none" xmlns="http://www.w3.org/2000/svg">
<path d="M16.4083 2.29151C16.0003 1.88207 15.5159 1.55726 14.9828 1.33566C14.4497 1.11406 13.8783 1 13.3013 1C12.7242 1 12.1528 1.11406 11.6197 1.33566C11.0866 1.55726 10.6022 1.88207 10.1943 2.29151L9.34761 3.14087L8.50097 2.29151C7.67694 1.46485 6.55932 1.00043 5.39397 1.00043C4.22862 1.00043 3.11099 1.46485 2.28696 2.29151C1.46293 3.11818 1 4.23939 1 5.40847C1 6.57756 1.46293 7.69876 2.28696 8.52543L3.1336 9.37478L9.34761 15.6087L15.5616 9.37478L16.4083 8.52543C16.8164 8.11617 17.1402 7.63026 17.3611 7.09544C17.582 6.56062 17.6957 5.98738 17.6957 5.40847C17.6957 4.82956 17.582 4.25632 17.3611 3.7215C17.1402 3.18669 16.8164 2.70077 16.4083 2.29151V2.29151Z" stroke="#979797" stroke-linecap="round" stroke-linejoin="round"/>
</svg>
