<svg xmlns="http://www.w3.org/2000/svg" viewBox="0 0 556 480"><defs><style>.cls-2{fill:#73350b}.cls-3{fill:#4e97f5}</style></defs><g id="a"><path d="M181.2 479.5c-25.1 0-39.5-10-47.2-18.4-8.6-9.4-13.6-22.1-13.6-34.7v-.9c1.2-25.4 14.9-38.6 26.6-46.8-3-14.9-1.9-29.2 3.3-41.4-13.3 2.8-26.7 4.6-39.9 4.6h-.9c-50.5 0-85.2-29.6-88.5-75.5-2.6-36.7 23.1-58.5 43.1-72.3-2.1-41.9 12-81.2 41.3-114.4C146 33.7 212 5.2 277.6 5.2s39.2 2.6 57.3 7.8C358 6.7 392.6.6 427 .6s77.6 10.9 94.5 32.4c8.6 11 17.3 30.3 10 60-.2.9-.5 1.7-.8 2.6-6.3 15.9-15 34.4-26.6 56.3 38.2 67.7 41.2 137 8.2 196.2-19.8 35.5-51.6 65.5-91.8 86.6-39.4 20.6-84.3 31.5-130 31.5-15.4 0-30.7-1.3-45.8-3.7-18 10.5-41.8 17.1-63.3 17.1Z" style="fill:#fff"/><path d="M512 88.1c21.5-87-120.6-71.3-177.3-54.3C222.4-2.2 69.2 78.3 85.1 204.1 66.4 216.6 38.8 233.8 41 265c2.8 39 33.4 57.2 69.4 56.9 29 0 60.9-10.2 89.2-19.2 13 .1 26.2.1 39.5.3 15.2 30.1 50.2 24.5 69.1 6.4 16.5 4.9 27.3 7.5 28.6 19.7 2 32.4-42.1 37.2-85.8 40-35.5-76-104.9-43.8-80.6 18.4-11.4 7.7-28.9 14.6-30 38.9 0 12.3 8.6 33.1 40.8 33.1s43.3-6.7 59.1-18.2c169.8 33.2 351.7-109.6 240.8-289 9.8-18.2 22.2-42.3 30.9-64.2" class="cls-2"/><path d="M485.6 77.8c12.9-32.6-78-37.5-151.1-14.2-117.3-39.2-244.2 47.3-219.1 149 2.7 10.9-47.9 27.6-46.1 50.3 1.1 13.7 6.9 21.6 15.7 25.7-.8-.4-1.6-.8-2.3-1.3 60-17.7 116-52.7 183.3-47.9-4.6 12.3-6.8 25.4-5.3 38.1 5.5 37.6 30.1 8.5 39 1.5 6.6-5 22.7-15 35.7-22.9 39.2 16.6 67.8 43.5 61.1 73.2-16.9 74.8-126 75-165 68-15-45-34-47-37-42-4.9 8.1 8 26 3 42s-29 19-29 29 50 4 63-16c127.2 42.5 346.3-81 215.7-255.5 12.8-22.3 28.5-51.8 38.4-77" class="cls-3"/><path d="M365 326.6c-.1-1.1-.2-2.1-.4-3.2.2 1 .3 2.1.4 3.2m.2 2.8c0-.4 0-.8-.1-1.1.1.4.1.8.1 1.1" class="cls-3"/><path d="M335.5 256.1c-13 7.9-29.1 17.9-35.7 22.9 36.8 5.7 64.5 19.1 65.4 50.3 3.3 57.5-72.7 69.8-133.6 67.9 39 7.1 148.1 6.9 165-67.9 6.7-29.6-22-56.6-61.1-73.2m-69.6-16.7c-67.3-4.7-123.3 30.1-183.3 47.9 27.5 15.9 74.9-1.2 112.7-12.9 20.4.3 43.1 0 65.2 1-1.2-11.9 1.2-24.4 5.4-36" style="fill:#c3dcfc"/><path d="M199.9 201.4c-2-31-48.4-29-47.7 2 1.9 31 48.6 29 47.7-2" class="cls-2"/><path d="M0 0h556v480H0z" style="fill:none"/></g></svg>