<svg width="24" height="22" viewBox="0 0 24 22" fill="none" xmlns="http://www.w3.org/2000/svg">
<path d="M5.0141 20.6251C5.28085 20.6251 5.49708 20.4089 5.49708 20.1422C5.49708 19.8754 5.28085 19.6592 5.0141 19.6592C4.74736 19.6592 4.53113 19.8754 4.53113 20.1422C4.53113 20.4089 4.74736 20.6251 5.0141 20.6251Z" stroke="#38AD58" stroke-width="1.5" stroke-linecap="round" stroke-linejoin="round"/>
<path d="M10.3268 20.6251C10.5936 20.6251 10.8098 20.4089 10.8098 20.1422C10.8098 19.8754 10.5936 19.6592 10.3268 19.6592C10.0601 19.6592 9.84387 19.8754 9.84387 20.1422C9.84387 20.4089 10.0601 20.6251 10.3268 20.6251Z" stroke="#38AD58" stroke-width="1.5" stroke-linecap="round" stroke-linejoin="round"/>
<path d="M1.15027 10.4824H3.08217L4.37655 16.9495C4.42072 17.1718 4.54169 17.3716 4.71828 17.5137C4.89487 17.6559 5.11584 17.7314 5.34251 17.7271H10.037C10.2637 17.7314 10.4847 17.6559 10.6613 17.5137C10.8379 17.3716 10.9588 17.1718 11.003 16.9495L11.7758 12.8973H3.56515" stroke="#38AD58" stroke-width="1.5" stroke-linecap="round" stroke-linejoin="round"/>
<path d="M14.5701 17.9342C19.1428 17.9342 22.8497 14.2273 22.8497 9.6546C22.8497 5.0819 19.1428 1.375 14.5701 1.375C9.99743 1.375 6.29053 5.0819 6.29053 9.6546" stroke="#38AD58" stroke-width="1.5" stroke-linecap="round" stroke-linejoin="round"/>
<path d="M14.5701 4.68701V9.65477L17.8819 11.3107" stroke="#38AD58" stroke-width="1.5" stroke-linecap="round" stroke-linejoin="round"/>
</svg>
