<svg xmlns="http://www.w3.org/2000/svg" id="a" viewBox="0 0 556 480"><defs><style>.d{fill:#73350b}.e{fill:#fff}.f{fill:#c47d76}</style></defs><path d="M195.73 476.13c-32.74 0-62.75-16.51-80.28-44.16L37.11 308.41c-18.7-29.49-19.56-67.21-2.6-97.46-18.37-22.53-28.66-50.97-28.66-80.21C5.85 60.79 62.76 3.88 132.71 3.88c32.54 0 63.91 12.65 87.41 34.99h115.76c23.5-22.35 54.87-35 87.41-35 69.95 0 126.86 56.91 126.86 126.86 0 29.24-10.3 57.69-28.67 80.21 16.97 30.25 16.11 67.97-2.59 97.46l-78.34 123.56c-17.52 27.65-47.53 44.16-80.28 44.16H195.73Z" class="e"/><path d="M496.45 208.54c20.73-19.5 33.7-47.17 33.7-77.81 0-58.92-47.94-106.86-106.86-106.86-31.28 0-59.46 13.51-79.02 35H211.73c-19.56-21.48-47.74-34.99-79.02-34.99-58.92 0-106.86 47.94-106.86 106.86 0 30.64 12.97 58.31 33.7 77.81L54 217.31c-15.48 24.42-15.48 55.97 0 80.39l78.34 123.56c13.84 21.83 37.54 34.87 63.39 34.87h164.54c25.85 0 49.55-13.03 63.39-34.87L502 297.7c15.48-24.42 15.48-55.97 0-80.39l-5.55-8.76Z" class="d"/><path d="m396.59 410.41-30.72-20.16 50.79-10.9 10.72-16.91-49.72-31.06 75.77-10.02 8.98-14.16-12.62-5.56-52.06-18.24 56.01-14.03 31.49-9.18c.55-9.57-1.83-19.28-7.17-27.7l-19.91-31.4c25.86-12.84 43.65-39.51 43.65-70.34 0-43.36-35.15-78.51-78.51-78.51-27.26 0-51.27 13.9-65.35 35h-59.98l-1.76 28.52c28.38 3.97 55.09 17.29 72.27 39.98-8.09-1.38-16-3.16-24.02-4.62-16.75-3.21-33.39-5.31-50.05-6.18l-1.51 24.39c21.04 3.33 40.63 13.8 52.57 31.4-11.48-1.45-23.85-3.68-35.19-4.79-6.41-.7-12.69-1.17-18.93-1.46L288.65 238h-21.33l-2.69-43.52c-6.24.29-12.52.76-18.93 1.46-11.34 1.12-23.72 3.34-35.19 4.79 11.94-17.6 31.53-28.07 52.57-31.4l-1.51-24.45c-9.1.46-18.23 1.31-27.41 2.59-15.42 1.94-31.19 5.43-46.66 8.26 17.18-22.69 43.89-36.01 72.27-39.98l-1.76-28.52h-59.98c-14.07-21.1-38.08-35-65.35-35-43.36 0-78.51 35.15-78.51 78.51 0 30.83 17.78 57.5 43.65 70.34l-19.91 31.4a46.68 46.68 0 0 0-7.17 27.7l31.49 9.18 56.01 14.03-52.06 18.24-12.62 5.56 8.98 14.16 75.77 10.02-49.72 31.06 10.72 16.91 50.79 10.9-30.72 20.16a46.7 46.7 0 0 0 36.32 17.36h164.54c14.2 0 27.51-6.46 36.32-17.36h.03Z" style="fill:#ffc926"/><path d="M111.45 179.89s48.02-75.24 49.9-77.27c-52.57-35.73-103.82 44.43-49.9 77.27M391.95 99.97c2.94 2.71 50.63 76.92 50.63 76.92 50.27-33.88.73-109.75-50.63-76.92" class="f"/><path d="M316.94 307.75c-15.14 0-28.87 5.19-38.94 13.62-10.08-8.43-23.81-13.62-38.94-13.62-30.92 0-55.98 21.65-55.98 48.36s25.06 48.36 55.98 48.36c15.14 0 28.87-5.19 38.94-13.62 10.08 8.43 23.81 13.62 38.94 13.62 30.92 0 55.98-21.65 55.98-48.36s-25.06-48.36-55.98-48.36" class="e"/><path d="M305.03 302.04c-6.82 0-16.4 1.99-27.03 1.99s-20.21-1.99-27.04-1.99-10.47 1.79-10.47 8.79c0 14.36 16.79 26 37.5 26s37.5-11.64 37.5-26c0-7-3.98-8.79-10.46-8.79M305.02 302.04h.02z" class="d"/><ellipse cx="195.25" cy="269.69" class="d" rx="29.43" ry="28.7"/><ellipse cx="360.75" cy="269.69" class="d" rx="29.43" ry="28.7"/><path d="M0 0h556v480H0z" style="fill:none"/></svg>