<svg version="1.1" id="a" xmlns="http://www.w3.org/2000/svg" x="0" y="0" viewBox="0 0 516 440" style="enable-background:new 0 0 516 440" xml:space="preserve"><style>.st0{fill:#73350b}.st1{fill:#4e97f5}.st2{fill:#c3dcfc}</style><path class="st0" d="M492 68c21.5-87-120.6-71.3-177.3-54.3C202.4-22.3 49.2 58.2 65.1 184c-18.7 12.5-46.3 29.7-44.1 60.9 2.8 39 33.4 57.2 69.4 56.9 29 0 60.9-10.2 89.2-19.2 13 .1 26.2.1 39.5.3 15.2 30.1 50.2 24.5 69.1 6.4 16.5 4.9 27.3 7.5 28.6 19.7 2 32.4-42.1 37.2-85.8 40-35.5-76-104.9-43.8-80.6 18.4-11.4 7.7-28.9 14.6-30 38.9 0 12.3 8.6 33.1 40.8 33.1 19.1 0 43.3-6.7 59.1-18.2 169.8 33.2 351.7-109.6 240.8-289C470.9 114 483.3 89.9 492 68z"/><path class="st1" d="M465.6 57.7c12.9-32.6-78-37.5-151.1-14.2C197.2 4.3 70.3 90.8 95.4 192.5c2.7 10.9-47.9 27.6-46.1 50.3 1.1 13.7 6.9 21.6 15.7 25.7-.8-.4-1.6-.8-2.3-1.3 60-17.7 116-52.7 183.3-47.9-4.6 12.3-6.8 25.4-5.3 38.1 5.5 37.6 30.1 8.5 39 1.5 6.6-5 22.7-15 35.7-22.9 39.2 16.6 67.8 43.5 61.1 73.2-16.9 74.8-126 75-165 68-15-45-34-47-37-42-4.9 8.1 8 26 3 42s-29 19-29 29 50 4 63-16c127.2 42.5 346.3-81 215.7-255.5 12.8-22.3 28.5-51.8 38.4-77z"/><path class="st1" d="M345 306.5c-.1-1.1-.2-2.1-.4-3.2.2 1 .3 2.1.4 3.2zM345.2 309.3c0-.4 0-.8-.1-1.1.1.4.1.8.1 1.1z"/><path class="st2" d="M315.5 236c-13 7.9-29.1 17.9-35.7 22.9 36.8 5.7 64.5 19.1 65.4 50.3 3.3 57.5-72.7 69.8-133.6 67.9 39 7.1 148.1 6.9 165-67.9 6.7-29.6-22-56.6-61.1-73.2zM245.9 219.3c-67.3-4.7-123.3 30.1-183.3 47.9 27.5 15.9 74.9-1.2 112.7-12.9 20.4.3 43.1 0 65.2 1-1.2-11.9 1.2-24.4 5.4-36z"/><path class="st0" d="M463.7 627.8v-1.1 1.1c0 .4.1 1 .2 1.5-.1-.5-.1-1-.2-1.5zM179.9 181.3c-2-31-48.4-29-47.7 2 1.9 31 48.6 29 47.7-2z"/></svg>