<svg version="1.1" id="a" xmlns="http://www.w3.org/2000/svg" x="0" y="0" viewBox="0 0 516 440" style="enable-background:new 0 0 516 440" xml:space="preserve"><style>.st0{fill:#73350b}.st1{fill:#8f8f8f}</style><path class="st0" d="M406.9 70.8C368.6 28.8 318.5 7.4 258 7.4S147.4 28.7 109.1 70.8C8.4 181.2 27.1 397.7 28 406.9c1.4 14.6 13.6 25.7 28.2 25.7h403.5c14.6 0 26.9-11.1 28.2-25.7 1-9.2 19.7-225.7-81-336.1z"/><path class="st1" d="M258 35.8C22.1 35.8 56.2 404.2 56.2 404.2h403.5c.1 0 34.2-368.4-201.7-368.4z"/><path class="st1" d="M224.1 312.7h.4l-.3-.2c-.1.1-.1.1-.1.2z"/><path d="m285.7 267.8-55.4-.5C239.8 100 82.6 77.4 82.6 306.6c0 37 5 69.5 13.9 97.6h323.1c8.9-28.1 13.9-60.7 13.9-97.7-4.5-228.9-158.2-206.3-147.8-38.7zm-61.6 44.9c0-.1 0-.1.1-.2l.3.2h-.4zm66.7 0 1-.7c0 .2.1.4.1.7h-1.1z" style="fill:#fff"/><path class="st1" d="M291.9 312.7c0-.2-.1-.4-.1-.7l-1 .7h1.1z"/><circle transform="rotate(-14.872 163.1 233.846)" class="st0" cx="163.1" cy="233.8" r="28.5"/><circle transform="rotate(-84.35 352.875 234.615) scale(.99996)" class="st0" cx="352.9" cy="234.6" r="28.5"/><path d="m207.6 300.9 16.6 11.6.3.2 20.5 14.4c6.9 4.9 18.3 4.9 25.3 0l20.5-14.4 1-.7 16-11.2c6.9-4.9 6.9-12.8 0-17.7l-22-15.4-15.5-10.7c-6.9-4.9-18.3-4.9-25.2 0l-14.7 10.3-22.7 15.9c-7 4.8-7 12.8-.1 17.7z" style="fill:#ffc926"/></svg>