<?xml version="1.0" encoding="UTF-8"?>
<svg id="a" data-name="レイヤー 1" xmlns="http://www.w3.org/2000/svg" viewBox="0 0 516 440">
  <path d="m413.5,64.47C371.96,22.93,316.74.05,258,.05s-113.96,22.88-155.5,64.42c-41.53,41.54-64.41,96.78-64.41,155.53s22.87,113.98,64.41,155.53c41.53,41.54,96.76,64.42,155.5,64.42s113.96-22.88,155.5-64.42c41.53-41.54,64.41-96.78,64.41-155.53s-22.87-113.98-64.41-155.53Z" style="fill: #73350b;"/>
  <path d="m258,28.35c-105.82,0-191.61,85.81-191.61,191.65s85.79,191.65,191.61,191.65,191.61-85.81,191.61-191.65S363.82,28.35,258,28.35Z" style="fill: #fff4c5;"/>
  <ellipse cx="186.17" cy="259.67" rx="31.74" ry="31.74" style="fill: #73350b;"/>
  <ellipse cx="329.83" cy="260.6" rx="31.74" ry="31.74" style="fill: #73350b;"/>
  <path d="m296.65,317.25l-28.16,20.47c-5.5,4-12.89,4-18.4,0l-28.16-20.47c-5.13-3.73-12.31-2.59-16.03,2.54-3.73,5.13-2.59,12.31,2.54,16.04l28.16,20.47c6.79,4.93,14.74,7.4,22.69,7.4s15.91-2.47,22.69-7.4l28.16-20.47c5.13-3.73,6.27-10.91,2.54-16.04-3.73-5.13-10.9-6.27-16.03-2.54Z" style="fill: #73350b;"/>
  <path d="m200.68,169.79c-3.48,0-6.86-1.82-8.7-5.07-23.89-42.23-31.05-91.42-20.17-138.52,1.24-5.37,6.6-8.72,11.97-7.48,5.37,1.24,8.72,6.6,7.48,11.97-9.75,42.21-3.32,86.32,18.1,124.19,2.71,4.8,1.02,10.89-3.77,13.6-1.55.88-3.24,1.3-4.91,1.3Z" style="fill: #73350b;"/>
  <path d="m276.91,169.79c-3.48,0-6.86-1.82-8.7-5.07-23.89-42.23-31.05-91.42-20.17-138.52,1.24-5.37,6.6-8.72,11.97-7.48,5.37,1.24,8.72,6.6,7.48,11.97-9.75,42.21-3.32,86.32,18.1,124.19,2.71,4.8,1.02,10.89-3.77,13.6-1.55.88-3.24,1.3-4.91,1.3Z" style="fill: #73350b;"/>
  <path d="m353.15,169.79c-3.48,0-6.86-1.82-8.7-5.07-23.89-42.23-31.05-91.42-20.18-138.52,1.24-5.37,6.6-8.72,11.97-7.48,5.37,1.24,8.72,6.6,7.48,11.97-9.75,42.21-3.32,86.32,18.1,124.19,2.71,4.8,1.02,10.89-3.77,13.6-1.55.88-3.24,1.3-4.91,1.3Z" style="fill: #73350b;"/>
</svg>