<svg version="1.1" id="a" xmlns="http://www.w3.org/2000/svg" x="0" y="0" viewBox="0 0 516 440" style="enable-background:new 0 0 516 440" xml:space="preserve"><style>.st0{fill:#73350b}</style><path class="st0" d="M515.3 123.1c0-64.7-52.7-117.4-117.4-117.4-28.5 0-54.6 10.2-74.9 27.1-20.8-6.1-42.6-9.2-64.9-9.2s-44.1 3.2-64.9 9.2c-20.4-16.9-46.5-27.1-75-27.1C53.4 5.7.7 58.4.7 123.1c0 31.4 12.4 59.9 32.5 81-3.5 16.1-5.3 32.7-5.3 49.6 0 61.6 24.8 110.5 71.8 141.5 39.2 25.9 92.4 39 158.3 39s119.1-13.1 158.3-39c47-31 71.8-80 71.8-141.6 0-16.9-1.8-33.5-5.3-49.6 20.1-20.9 32.5-49.5 32.5-80.9z"/><path d="M451 194.6c-18.2-59.5-63.1-107.3-120.8-129.4-22.4-8.6-46.8-13.3-72.2-13.3s-49.8 4.7-72.2 13.3C128.1 87.4 83.2 135.2 65 194.6c-5.7 18.7-8.8 38.5-8.8 59.1 0 111.4 90.3 152.2 201.8 152.2s201.8-40.8 201.8-152.2c0-20.5-3.1-40.4-8.8-59.1z" style="fill:#fff"/><ellipse transform="rotate(-27.541 340.797 246.576)" class="st0" cx="340.8" cy="246.6" rx="53" ry="66.3"/><path class="st0" d="M258 326.5c-11.7 0-21.2-2.2-21.2-11.1s9.5-16.1 21.2-16.1 21.2 7.2 21.2 16.1-9.5 11.1-21.2 11.1z"/><ellipse transform="rotate(-62.471 175.17 248.891)" class="st0" cx="175.2" cy="248.9" rx="66.3" ry="53"/></svg>