<svg width="220" height="56" viewBox="0 0 220 56" fill="none" xmlns="http://www.w3.org/2000/svg">
<g clip-path="url(#clip0_692_40062)">
<path d="M144.23 40.7899C142.84 39.7099 143.22 38.1999 144.86 38.0699C146.51 37.9399 148.01 39.2499 150.01 39.2699C151.84 39.2899 153.34 38.5899 154.68 37.7199C156.02 36.8599 157.81 38.8099 156.4 40.0399C155.17 41.1199 151.83 42.3099 149.86 42.3799C147.57 42.4699 145.15 41.5099 144.22 40.7899H144.23Z" fill="#DF8C5E"/>
<path d="M146.11 40.2499C145.44 39.9199 144.7 39.3199 144.43 39.4599C143.67 39.8499 144.82 40.8499 145.53 41.1999C146.24 41.5499 146.98 41.6199 147.15 41.2899C147.51 40.6199 146.69 40.5399 146.11 40.2499Z" fill="#EBB08C"/>
<path d="M83 37.6699C83.01 37.3299 84.97 36.2199 86.51 35.8299C88.05 35.4299 88.62 35.4299 90.09 35.4299C91.56 35.4299 92.93 35.7399 93.92 36.2099C94.91 36.6799 96.03 37.1999 96.03 37.1999C96.03 37.1999 97.64 36.1999 97.94 36.3999C98.23 36.5999 98.2 37.8199 98.07 38.3899C97.94 38.9599 98.16 39.6199 97.9 39.8099C97.64 39.9999 96.03 39.1399 96.03 39.1399C96.03 39.1399 95.48 39.7999 94.69 40.3099C93.89 40.8199 92.66 41.1699 91.69 41.3499C90.72 41.5299 89.41 41.3899 88.54 41.2599C87.67 41.1399 86.9 41.0199 86.05 40.6099C85.21 40.1999 84.41 39.5999 83.84 38.9299C83.28 38.2699 82.98 37.9999 83 37.6599V37.6699Z" fill="#83C5C9"/>
<path d="M89.8 37.6699L89.73 39.6299C90.59 39.1699 91 38.8399 91.07 38.5999L89.8 37.6699Z" fill="#66A9AD"/>
<path d="M186.04 36.7801C186.19 38.0601 185.46 39.2001 184.42 39.3201C183.37 39.4401 182.4 38.5001 182.25 37.2201C182.1 35.9401 182.76 34.2001 183.8 34.0701C184.85 33.9501 185.89 35.4901 186.04 36.7701V36.7801Z" fill="#E7A974"/>
<path d="M185.63 38.5601C185.34 38.9801 184.91 39.2701 184.42 39.3201C183.37 39.4401 182.4 38.5101 182.25 37.2201C182.23 37.0301 182.22 36.8301 182.23 36.6301C182.47 37.7201 183.95 39.3001 185.63 38.5501V38.5601Z" fill="#D29768"/>
<path d="M190.73 36.8001C190.73 38.0901 189.89 39.1401 188.83 39.1401C187.77 39.1401 186.91 38.1001 186.91 36.8101C186.91 35.5201 187.75 33.8601 188.81 33.8601C189.86 33.8601 190.73 35.5101 190.73 36.8001Z" fill="#E7A974"/>
<path d="M190.13 38.5201C189.79 38.9101 189.34 39.1401 188.84 39.1401C187.78 39.1401 186.92 38.1001 186.92 36.8201C186.92 36.6301 186.94 36.4301 186.97 36.2401C187.09 37.3501 188.38 39.0801 190.13 38.5301V38.5201Z" fill="#D29768"/>
<path d="M194.86 33.4801C194.66 33.4101 194.45 33.3801 194.24 33.3801C193.5 33.3801 192.87 33.8401 192.75 34.5301C192.31 36.8401 191.79 38.4701 190.89 39.9501C189.99 41.4301 188.69 42.7701 186.66 44.5001C186.37 44.7501 186.19 45.1001 186.18 45.4901C186.16 45.9501 186.37 46.4001 186.73 46.7501C187.13 47.1401 187.61 47.3701 188.1 47.3701C188.42 47.3701 188.72 47.2601 188.96 47.0601C191.05 45.2301 192.54 43.6001 193.67 41.7901C194.79 39.9801 195.55 37.9801 196.18 35.4301C196.4 34.5801 195.79 33.7601 194.87 33.4801H194.86ZM186.38 45.5001H186.37H186.38ZM186.87 46.6101L186.8 46.6901L186.87 46.6101Z" fill="#38AD58"/>
<path d="M25.58 26.4799C25.46 26.4499 25.34 26.4399 25.22 26.4399C25.02 26.4399 24.83 26.4799 24.68 26.5099H24.65L24.63 26.5199C24.09 26.7199 23.21 26.8399 22.27 26.8399H7.69C6.72 26.8399 6 27.7599 6 29.0199C6 30.2799 6.73 31.2299 7.69 31.2299H23.01C21.84 35.0099 19.2 40.3999 10.67 45.5699C10.27 45.8199 10.01 46.2199 9.93 46.6999C9.84 47.2799 10.03 47.9099 10.45 48.4299C11.01 49.1299 11.71 49.5399 12.38 49.5399C12.7 49.5399 13 49.4499 13.27 49.2699C23.4 42.5599 26.11 36.1999 28.02 30.2599C28.27 29.5099 28.04 28.6999 27.34 27.8599C26.73 27.1399 26.27 26.6599 25.57 26.4899L25.58 26.4799Z" fill="#38AD58"/>
<path d="M44.08 33.6401C43.65 33.1601 43.34 32.8101 42.82 32.6601C42.7 32.6201 42.58 32.5901 42.45 32.5901C42.23 32.5901 42.03 32.6501 41.86 32.7101L41.89 32.8001L41.86 32.7101C41.64 32.7901 41.26 32.8301 40.73 32.8301H30.98C30.17 32.8301 29.59 33.5601 29.59 34.5301C29.59 35.5001 30.17 36.2801 30.98 36.2801H40.19C39.73 36.9501 39.03 37.7901 38.15 38.5701H38.14L38.2 38.6501L38.14 38.5901L38.13 38.6101C37.88 38.8901 37.75 39.2601 37.77 39.6501C37.79 40.1001 38.01 40.5201 38.37 40.8401C38.75 41.1901 39.19 41.3801 39.63 41.3901C40.01 41.3901 40.35 41.2501 40.59 40.9901C42.31 39.1501 43.63 37.3301 44.52 35.5901L44.43 35.5501L44.52 35.5901C44.81 35.0001 44.65 34.3001 44.12 33.6701L44.08 33.6401ZM44 33.7001L44.03 33.6801L44 33.7001Z" fill="#38AD58"/>
<path d="M37.68 38.1501H37.78C37.78 37.4301 37.14 36.7101 36.12 36.7101H36.05C35.09 36.7401 34.35 37.3301 34.35 38.1401C34.34 40.0101 34.28 41.1301 33.91 42.2101C33.53 43.2901 32.83 44.3301 31.51 46.0201C31.31 46.3001 31.22 46.6401 31.27 46.9801L31.37 46.9601L31.27 46.9801C31.34 47.4101 31.61 47.8001 32.01 48.0901C32.36 48.3601 32.76 48.5101 33.15 48.5101C33.55 48.5101 33.93 48.3501 34.18 48.0501C35.57 46.2801 36.45 44.8901 36.99 43.3901C37.53 41.8901 37.74 40.3001 37.77 38.1401H37.67L37.68 38.1501Z" fill="#38AD58"/>
<path d="M31.27 47L31.37 46.98L31.27 47Z" fill="#38AD58"/>
<path d="M49.09 36.36C50.09 36.23 51.1 36.14 52.11 36.06C53.12 35.99 54.15 35.93 55.16 36.03C55.85 36.1 56.98 36.2 57.48 36.64C58.16 37.24 58.24 38.25 57.88 39.01C57.48 39.85 57.25 40.54 56.05 40.62C54.92 40.69 53.69 40.43 52.57 40.33C51.54 40.25 50.28 40.11 49.4 39.65C48.55 39.2 47.57 38.88 46.83 38.29C46.63 38.13 46.48 37.96 46.28 37.8C46.08 37.64 45.83 37.51 45.87 37.23C45.91 36.89 46.39 36.74 46.77 36.68C47.54 36.55 48.31 36.44 49.09 36.35V36.36Z" fill="#F3985A"/>
<path d="M55.73 36.63C55.18 37.32 54.73 38.11 54.43 38.94C53.81 38.49 53.63 37.47 54.02 36.6L55.74 36.63H55.73Z" fill="#EE7C1E"/>
<path d="M53.02 39.8C52.65 39.04 52.39 38.2 52.27 37.35C51.62 37.7 51.26 38.67 51.44 39.59L53.01 39.81L53.02 39.8Z" fill="#EE7C1E"/>
<path d="M50.42 36.91C50.03 37.44 49.74 38.05 49.56 38.67C49.03 38.35 48.82 37.6 49.06 36.93L50.42 36.9V36.91Z" fill="#EE7C1E"/>
<path d="M61.52 38.4299C61.82 38.5999 61.75 37.8599 61.72 37.7999C61.62 37.5599 61.31 37.2199 61.04 37.1199C60.75 37.0099 60.39 37.0399 60.09 37.1499C59.78 37.2699 59.64 37.5599 59.54 37.8199C59.51 37.8899 59.49 37.9599 59.48 38.0199C59.17 37.9499 58.78 37.9899 58.46 37.9799C58.02 37.9799 57.64 37.8799 57.21 37.8499C57.16 37.8499 57.11 37.8499 57.07 37.8699C57.03 37.8999 57.02 37.9399 57.01 37.9799C56.97 38.1699 56.72 38.7899 56.85 38.9399C56.98 39.0899 57.56 39.0799 57.78 39.0699C58.38 39.0499 58.99 38.9799 59.43 39.3599C59.81 39.6899 60 40.3899 60.77 40.1099C61.12 39.9799 61.32 39.5699 61.11 39.3099C61.35 39.4499 61.67 39.5899 61.92 39.4499C62.14 39.3299 62.17 39.0599 62.06 38.8699C61.95 38.6799 61.73 38.5599 61.53 38.4399L61.52 38.4299Z" fill="#38AD58"/>
<path d="M213.26 39.6399C213.21 39.2499 212.99 38.9199 212.65 38.7199L205.63 34.4999C205.4 34.3599 205.12 34.2899 204.84 34.2899C204.31 34.2899 204.05 34.6399 203.95 34.9199V34.3399C203.96 32.1699 203.98 30.2199 204 28.8999C204 28.0499 203.14 27.4299 201.95 27.4299C200.76 27.4299 199.9 28.0499 199.9 28.8999V47.1899C199.9 48.0399 200.74 48.6299 201.95 48.6299C203.09 48.6299 203.95 47.9999 203.95 47.1499C203.91 45.6199 203.92 42.9399 203.92 40.0999C203.92 39.3399 203.92 38.5599 203.92 37.7799V37.6799L210.31 41.6499C210.53 41.7799 210.8 41.8499 211.08 41.8499C211.67 41.8499 212.3 41.5399 212.74 41.0399C213.14 40.6099 213.32 40.0999 213.26 39.6199V39.6399Z" fill="#38AD58"/>
<path d="M141.48 30.31H141.46C141.36 30.27 141.25 30.26 141.13 30.26C140.99 30.26 140.83 30.28 140.65 30.32H140.62L140.59 30.34C140.28 30.47 139.82 30.53 139.19 30.53H124.52C123.67 30.53 123 31.38 123 32.47C123 33.56 123.65 34.38 124.52 34.38H137.84C136.92 35.68 134.55 38.34 132.43 39.91L130.55 37.58C130.29 37.27 129.93 37.09 129.49 37.09C129.05 37.09 128.58 37.28 128.17 37.62C127.34 38.31 127.13 39.27 127.66 39.95L133.24 46.84C133.49 47.16 133.87 47.34 134.31 47.34C134.75 47.34 135.21 47.16 135.62 46.84C136.08 46.48 136.36 46 136.42 45.51C136.46 45.13 136.37 44.77 136.14 44.48L134.82 42.86C138.09 40.41 141.58 36.57 143.21 33.57C143.53 32.98 143.41 32.26 142.87 31.52C142.42 30.9 142.1 30.51 141.5 30.3L141.48 30.31Z" fill="#38AD58"/>
<path d="M178.76 32.48H167.97C168.38 31.62 168.71 30.74 169.08 29.74C169.2 29.4 169.19 29.04 169.04 28.69C168.83 28.23 168.4 27.85 167.81 27.63C167.55 27.53 167.29 27.48 167.03 27.48C166.31 27.48 165.74 27.88 165.56 28.49C164.74 31.28 163.69 33.25 159.6 37.51C159.34 37.78 159.2 38.14 159.22 38.53C159.24 39.03 159.5 39.53 159.93 39.9C160.36 40.29 160.87 40.51 161.35 40.51C161.74 40.51 162.09 40.36 162.33 40.1C163.66 38.7 164.74 37.45 165.64 36.28H170.09C169.95 40.86 169.31 42.5 165.32 45.59C165.03 45.82 164.85 46.17 164.82 46.56C164.78 47.06 164.97 47.59 165.37 48.04C165.8 48.51 166.34 48.78 166.86 48.78C167.19 48.78 167.49 48.67 167.74 48.47C172.67 44.37 173.76 42.25 173.9 36.27H178.77C179.62 36.27 180.27 35.46 180.27 34.38C180.27 33.12 179.52 32.47 178.77 32.47L178.76 32.48Z" fill="#38AD58"/>
<path d="M81.49 27.4899H81.47C81.36 27.4499 81.24 27.4299 81.11 27.4299C80.95 27.4299 80.77 27.4499 80.56 27.4999H80.53L80.5 27.5199C80.12 27.6699 79.57 27.7499 78.81 27.7499H61.45C60.49 27.7499 59.73 28.7199 59.73 29.9599C59.73 31.1999 60.47 32.1399 61.45 32.1399H77.36C76.32 33.6499 73.39 36.9599 70.79 38.8699L68.51 36.0599C68.22 35.7099 67.81 35.5099 67.31 35.5099C66.81 35.5099 66.27 35.7299 65.8 36.1199C64.85 36.9099 64.61 37.9999 65.2 38.7699L72.88 48.2399C73.16 48.5999 73.59 48.7999 74.09 48.7999C74.59 48.7999 75.12 48.5899 75.59 48.2199C76.11 47.7999 76.44 47.2599 76.5 46.6999C76.55 46.2699 76.44 45.8599 76.19 45.5399L73.5 42.2399C77.38 39.3599 81.54 34.7799 83.48 31.2199C83.84 30.5599 83.7 29.7199 83.08 28.8799C82.55 28.1599 82.18 27.7099 81.49 27.4599V27.4899Z" fill="#38AD58"/>
<path d="M116.05 26.55C116.07 26.44 116.07 26.32 116.07 26.2C116.07 26.12 116.08 26.04 116.07 25.96C116.07 25.82 116.03 25.68 116.01 25.54C116 25.47 115.99 25.4 115.98 25.32C115.93 25.1 115.86 24.88 115.77 24.65C115.77 24.65 115.77 24.64 115.77 24.63C115.7 24.44 115.61 24.27 115.5 24.1C115.47 24.05 115.43 24 115.39 23.95C115.33 23.86 115.27 23.77 115.2 23.69C115.2 23.69 115.2 23.7 115.2 23.71C115.16 23.67 115.13 23.61 115.09 23.58C114.69 23.22 114.17 23.06 113.67 22.96C112.79 22.78 111.87 22.74 111 22.99C110.39 23.16 109.79 23.5 109.45 24.08C109.23 24.47 109.14 24.94 109.08 25.4C109.01 25.88 108.96 26.39 109.1 26.85C109.8 29.15 112.46 29.05 114.15 28.53C115.03 28.26 115.61 27.76 115.89 27.11C115.89 27.11 115.89 27.09 115.89 27.08C115.93 26.98 115.95 26.87 115.98 26.77C116 26.69 116.03 26.62 116.04 26.54L116.05 26.55Z" fill="#EE8474"/>
<path d="M121.77 23.63C121.61 23.23 121.39 22.86 121.09 22.58C120.69 22.22 120.17 22.06 119.67 21.96C118.79 21.78 117.87 21.74 117 21.99C116.44 22.15 115.9 22.44 115.55 22.93C115.58 22.95 115.6 22.97 115.62 22.99C116.05 23.38 116.33 23.88 116.52 24.34C116.94 25.39 117.04 26.45 116.66 27.37C116.64 27.43 116.61 27.49 116.58 27.55C117.68 28.02 119.1 27.86 120.15 27.55C121.96 26.99 122.51 25.5 121.77 23.65V23.63Z" fill="#EE8474"/>
<path d="M119.06 21.9299C118.92 21.9299 118.81 21.8299 118.71 21.7399C118.23 21.2999 117.76 20.8699 117.28 20.4299C117.35 20.8099 117.42 21.1999 117.49 21.5799C117.51 21.6999 117.52 21.8499 117.39 21.9199C117.3 21.9599 117.19 21.9499 117.1 21.9199C116.43 21.7099 116.13 20.8199 115.43 20.9699C116.05 21.9099 116.73 24.1199 118.51 23.7999C119.54 23.6099 120.45 21.4999 120.83 20.7499C120.37 21.0899 119.91 21.4199 119.45 21.7499C119.34 21.8299 119.21 21.9199 119.06 21.9099V21.9299Z" fill="#38AD58"/>
<path d="M111.35 39.26C113.66 36.05 114.59 33.04 115.57 29.46C115.63 29.21 115.64 28.96 115.59 28.71C115.24 28.96 114.83 29.16 114.38 29.3C113.46 29.58 112.23 29.77 111.09 29.54C109.91 29.3 108.78 28.58 108.33 27.09C108.29 26.96 108.27 26.84 108.25 26.71H99.72C98.75 26.71 98.03 27.69 98.03 28.92C98.03 30.15 98.76 31.08 99.72 31.08H110.65C109.68 35.69 105.31 40.71 97.64 46.01C97.28 46.25 97.05 46.63 96.99 47.07C96.91 47.64 97.12 48.26 97.58 48.8C98.07 49.38 98.7 49.71 99.32 49.71C99.66 49.71 99.99 49.61 100.26 49.41C103.94 46.75 106.6 44.54 108.59 42.49L108.61 42.51L108.64 42.48L114.65 48.85C114.95 49.16 115.36 49.33 115.79 49.33C116.35 49.33 116.92 49.07 117.45 48.57C117.87 48.15 118.13 47.64 118.21 47.15C118.29 46.62 118.14 46.13 117.79 45.78L111.35 39.28V39.26Z" fill="#38AD58"/>
<path d="M112.51 24.8099C113.54 24.6199 114.45 22.5099 114.83 21.7599C114.37 22.0999 113.91 22.4299 113.45 22.7599C113.34 22.8399 113.21 22.9299 113.06 22.9199C112.92 22.9199 112.81 22.8199 112.71 22.7299C112.23 22.2899 111.76 21.8599 111.28 21.4199C111.35 21.7999 111.42 22.1899 111.49 22.5699C111.51 22.6899 111.52 22.8399 111.39 22.9099C111.3 22.9499 111.19 22.9399 111.1 22.9099C110.43 22.6999 110.13 21.8099 109.43 21.9599C110.05 22.8999 110.73 25.1099 112.51 24.7899V24.8099Z" fill="#38AD58"/>
<path d="M14.2475 7.76746H13.9404V15.0879H14.2475V7.76746Z" fill="#38AD58"/>
<path d="M12.7833 13.273C12.7833 13.273 13.6335 11.611 9.81772 9.94933L6.00476 8.28796C6.00476 8.28796 5.58101 12.7186 12.7833 13.273Z" fill="#38AD58"/>
<path d="M14.3353 15.1174C14.3353 15.1174 13.458 13.8264 10.2213 13.7978L6.98817 13.7694C6.98817 13.7694 9.4351 17.26 14.3353 15.1174Z" fill="#38AD58"/>
<path d="M15.5259 16.0249C15.5259 16.0249 14.7552 14.9924 12.6192 16.4342L10.4828 17.8759C10.4828 17.8759 13.0755 19.6534 15.5259 16.0249Z" fill="#38AD58"/>
<path d="M19.5116 18.1534C16.9338 18.1668 15.3635 16.7572 15.3519 14.3548C15.3397 11.8328 17.0409 10.4312 19.5465 10.4186C20.037 10.414 20.5263 10.4692 21.0039 10.5829V9.69036C20.5106 9.61175 20.0117 9.57533 19.5124 9.58148C16.2837 9.59844 14.0771 11.4474 14.0911 14.4023C14.107 17.5009 16.4021 19.015 19.2404 18.9998C19.8317 18.9969 20.4217 18.9426 21.0039 18.8373V17.983C20.5136 18.0924 20.0135 18.1495 19.5116 18.1534Z" fill="#38AD58"/>
<path d="M13.7925 14.2499C13.7509 14.2499 13.7097 14.2415 13.6713 14.2252C13.6329 14.2089 13.5981 14.1851 13.5688 14.1551C13.5395 14.125 13.5164 14.0894 13.5007 14.0502C13.485 14.011 13.4771 13.9691 13.4775 13.9268V7.49969L12.0444 6.96399V14.2647C12.0445 14.3479 12.0607 14.4302 12.0922 14.507C12.1236 14.5838 12.1696 14.6535 12.2275 14.7121C12.2855 14.7708 12.3542 14.8172 12.4299 14.8488C12.5055 14.8803 12.5865 14.8964 12.6682 14.896H18.1956V14.2499H13.7925Z" fill="#38AD58"/>
<path d="M13.1947 6.43009L12.2348 6.07129V7.92458H13.1947V6.43009Z" fill="#38AD58"/>
<path d="M12.7929 5.14281L12.4104 5V6.54182H12.7929V5.14281Z" fill="#38AD58"/>
<path d="M45.5759 18.8175H41.8734C39.9461 14.1278 39.5689 13.7448 39.3207 13.235L38.7113 17.8577L35.2209 18.2415L36.1275 9.16516H40.5282V11.2721H42.8704C42.8704 11.2721 43.4365 11.9208 45.5759 18.8175Z" fill="#38AD58"/>
<path d="M42.627 8.07295L40.9712 8V10.7807H42.739L42.627 8.07295Z" fill="#38AD58"/>
<path d="M43.047 8.09973L43.1432 10.7805H44.7582V8.17511L43.047 8.09973Z" fill="#38AD58"/>
<path d="M54.1105 12.0194L47.1702 11.6779L47 9L54.107 9.3405L54.1105 12.0194ZM56.9971 13.4463V16.8072C55.5927 17.3644 54.1528 17.824 52.6873 18.1828C50.9218 18.5594 49.1364 18.8322 47.3401 19V15.6286C48.9001 15.5068 50.4515 15.2892 51.9857 14.977L47.3405 14.7496L47.1702 12.0717L54.1105 12.4133V14.4299C54.1105 14.4299 55.7778 13.9324 57 13.4463H56.9971Z" fill="#38AD58"/>
<path d="M67.9994 16.6129H65.3671L65.0834 19H61.5033L61.787 16.6129H59V13.0491H68L67.9994 16.6129ZM67.7659 12.5578H59.2404V9H67.7659V12.5578Z" fill="#38AD58"/>
<path d="M29.5313 9V14.7055C29.5313 15.3833 29.3161 18.2101 29 19H33.3669C33.5821 18.4955 34 16.1788 34 13.8213V9.1733L29.5313 9Z" fill="#38AD58"/>
<path d="M27.4266 15.4225H26.8552V9.11264L24 9V16H28V9.15783L27.4266 9.13524V15.4225Z" fill="#38AD58"/>
<path d="M70 11.7678V15.2818L73.2102 14.7315V19H76.8322V13.9659L79 13.5138V10L70 11.7678Z" fill="#38AD58"/>
</g>
<defs>
<clipPath id="clip0_692_40062">
<rect width="208" height="44" fill="white" transform="translate(6 6)"/>
</clipPath>
</defs>
</svg>
